<?xml version="1.0" standalone="no"?>
<!DOCTYPE svg PUBLIC "-//W3C//DTD SVG 1.1//EN" "http://www.w3.org/Graphics/SVG/1.1/DTD/svg11.dtd" >
<svg xmlns="http://www.w3.org/2000/svg">
<metadata>
This is a custom SVG webfont generated by Font Squirrel.
Copyright   : Copyright c 2009 by Matthew Desmond MADType All rights reserved
Designer    : Matt Desmond
Foundry     : Matthew Desmond MADType
</metadata>
<defs>
<font id="VariableBold" horiz-adv-x="1044" >
<font-face units-per-em="2048" ascent="1597" descent="-451" />
<missing-glyph horiz-adv-x="491" />
<glyph unicode=" "  horiz-adv-x="491" />
<glyph unicode="&#x09;" horiz-adv-x="491" />
<glyph unicode="&#xa0;" horiz-adv-x="491" />
<glyph unicode="!" horiz-adv-x="409" d="M143 61v164q0 29 18.5 45.5t43 16.5t43 -16.5t18.5 -45.5v-164q0 -29 -18.5 -45t-43 -16t-43 16t-18.5 45zM143 563v973q0 29 18.5 45t43 16t43 -16t18.5 -45v-973q0 -29 -18.5 -45t-43 -16t-43 16t-18.5 45z" />
<glyph unicode="&#x22;" horiz-adv-x="636" d="M123 1208v328q0 29 18.5 45t43 16t43 -16t18.5 -45v-328q0 -29 -18.5 -45t-43 -16t-43 16t-18.5 45zM391 1208v328q0 29 18.5 45t43 16t43 -16t18.5 -45v-328q0 -29 -18.5 -45t-43 -16t-43 16t-18.5 45z" />
<glyph unicode="#" horiz-adv-x="1527" d="M41 546.5q0 24.5 16.5 43t44.5 18.5h328l41 381h-315q-29 0 -45.5 18.5t-16.5 43t16.5 43t45.5 18.5h327l45 430q2 27 19.5 41t40.5 14q27 0 46 -16t17 -43l-45 -426h381l45 430q2 27 19.5 41t40.5 14q27 0 46 -16t17 -43l-45 -426h315q29 0 45.5 -18.5t16.5 -43 t-16.5 -43t-45.5 -18.5h-327l-41 -381h315q29 0 45.5 -18.5t16.5 -43t-16.5 -43t-45.5 -18.5h-328l-45 -430q-6 -55 -61 -55q-25 0 -44.5 16.5t-16.5 42.5q29 285 45 426h-381l-45 -430q-6 -55 -62 -55q-25 0 -44 16.5t-17 42.5q29 285 45 426h-316q-29 0 -45 18.5t-16 43z M553 608h381l41 381h-381z" />
<glyph unicode="$" horiz-adv-x="1208" d="M123 207q0 25 19.5 43t43.5 18q29 0 50 -26q6 -8 16 -19q111 -115 291 -121v686q-76 29 -123 50.5t-107.5 59.5t-95.5 78t-59.5 102.5t-24.5 135.5q0 172 120 281t290 121v117q0 29 18.5 45t43 16t43 -16.5t18.5 -44.5v-121q106 -18 205.5 -74.5t156.5 -136.5 q14 -16 14 -37q0 -25 -18 -42t-43 -17q-29 0 -49 22q-8 10 -23 25q-104 106 -243 135v-613q96 -37 156.5 -68.5t128 -85.5t101 -131t33.5 -177q0 -170 -118.5 -284t-300.5 -140v-140q0 -29 -18.5 -45t-43 -16t-43 16.5t-18.5 44.5v132q-117 4 -232.5 55t-175.5 137 q-12 19 -12 35zM256 1214q0 -109 73.5 -172t213.5 -120v571q-125 -10 -206 -87t-81 -192zM666 111q135 25 216 106.5t81 194.5q0 125 -77 197.5t-220 129.5v-628z" />
<glyph unicode="%" horiz-adv-x="1388" d="M84 1247.5q0 145.5 102.5 247.5t247.5 102q143 0 246.5 -102t103.5 -247.5t-103 -248t-247 -102.5q-145 0 -247.5 102.5t-102.5 248zM102 45q0 16 13 35l1059 1491q18 27 49 26q25 0 44 -18t19 -43q0 -16 -12 -35l-1059 -1491q-18 -27 -49 -26q-25 0 -44.5 18t-19.5 43z M207 1247q0 -94 66.5 -160.5t160.5 -66.5t161 66.5t67 160.5t-67 161t-161 67t-160.5 -67t-66.5 -161zM606 333.5q0 145.5 102.5 248t248 102.5t248 -102.5t102.5 -248t-102.5 -247.5t-248 -102t-248 102t-102.5 247.5zM729 334q0 -94 66.5 -161t161 -67t161 67t66.5 161 t-66.5 160.5t-161 66.5t-161 -66.5t-66.5 -160.5z" />
<glyph unicode="&#x26;" horiz-adv-x="1265" d="M133 442q0 143 67.5 242.5t188.5 185.5l-22 27q-156 182 -156 328q0 164 94 278.5t258 114.5q133 0 232.5 -97.5t99.5 -234.5q0 -76 -24.5 -139.5t-83 -120.5t-98.5 -88t-124 -88l393 -465q20 43 38 89t24 71.5t6 29.5q12 49 61 50q25 0 43.5 -15.5t18.5 -40.5 q0 -12 -2 -18q-8 -35 -25 -88q-37 -106 -78 -178l154 -183q16 -16 16 -39q0 -27 -19 -45t-44 -18q-29 0 -45 23l-131 155q-152 -195 -363 -194q-205 0 -342 128.5t-137 329.5zM256 442q0 -150 99.5 -242.5t256.5 -92.5q162 0 281 167l-428 506q-100 -74 -154.5 -153 t-54.5 -185zM334 1229q0 -104 121 -250l32 -39l110 75.5t84 72t70.5 94.5t20.5 104q0 86 -62.5 147.5t-146.5 61.5q-104 0 -166.5 -72.5t-62.5 -193.5z" />
<glyph unicode="'" horiz-adv-x="368" d="M123 1208v328q0 29 18.5 45t43 16t43 -16t18.5 -45v-328q0 -29 -18.5 -45t-43 -16t-43 16t-18.5 45z" />
<glyph unicode="(" horiz-adv-x="579" d="M102 624.5q0 571.5 265 968.5q20 27 47 27q25 0 44 -18.5t19 -45.5q0 -18 -12 -36q-14 -18 -35 -56q-205 -346 -205 -839q0 -227 60.5 -482.5t179.5 -412.5q12 -18 12 -37q0 -25 -19.5 -43.5t-43.5 -18.5q-29 0 -47 25q-265 397 -265 968.5z" />
<glyph unicode=")" horiz-adv-x="579" d="M102 1556q0 25 20.5 44.5t45.5 19.5q27 0 45 -27q18 -23 43 -65q221 -373 221 -903q0 -244 -66.5 -523.5t-197.5 -445.5q-20 -27 -47 -27q-25 0 -43.5 18.5t-18.5 45.5q0 20 11 37q14 18 37 55q203 348 202 840q0 227 -60.5 482t-178.5 413q-13 18 -13 36z" />
<glyph unicode="*" horiz-adv-x="1171" d="M102 809q0 31 31 51l330 189l-330 190q-31 23 -31 51q0 25 18.5 45.5t43.5 20.5q14 0 31 -10l329 -191v381q0 29 18.5 45t43 16t43 -16t18.5 -45v-381l330 191q16 10 31 10q25 0 43 -20.5t18 -45.5q0 -31 -31 -51l-329 -188l329 -191q31 -20 31 -51q0 -25 -18.5 -45.5 t-42.5 -20.5q-14 0 -31 11l-330 190v-381q0 -29 -18.5 -45t-43 -16t-43 16.5t-18.5 44.5v381l-329 -190q-16 -10 -31 -11q-25 0 -43.5 20.5t-18.5 45.5z" />
<glyph unicode="+" horiz-adv-x="1474" d="M41 798.5q0 24.5 16.5 43t44.5 18.5h574v574q0 29 18.5 45t43 16t43 -16.5t18.5 -44.5v-574h573q29 0 45.5 -18.5t16.5 -43t-16.5 -43t-45.5 -18.5h-573v-573q0 -29 -18.5 -45.5t-43 -16.5t-43 16.5t-18.5 45.5v573h-574q-29 0 -45 18.5t-16 43z" />
<glyph unicode="," horiz-adv-x="430" d="M0 -182q0 27 27 47q8 6 20 20q137 133 137 340q0 29 18.5 45.5t43 16.5t43 -16.5t18.5 -45.5q0 -125 -56 -257t-153 -201q-14 -12 -37 -13q-25 0 -43 19.5t-18 44.5z" />
<glyph unicode="-" horiz-adv-x="778" d="M102 796.5q0 24.5 16.5 43t45.5 18.5h450q29 0 45.5 -18.5t16.5 -43t-16.5 -43t-45.5 -18.5h-450q-29 0 -45.5 18.5t-16.5 43z" />
<glyph unicode="." horiz-adv-x="368" d="M123 61v164q0 29 18.5 45.5t43 16.5t43 -16.5t18.5 -45.5v-164q0 -29 -18.5 -45t-43 -16t-43 16t-18.5 45z" />
<glyph unicode="/" horiz-adv-x="688" d="M41 -162q0 12 2 19l483 1695q14 45 58 45q27 0 45 -16t18 -43q0 -12 -2 -18l-483 -1696q-10 -45 -58 -45q-25 0 -44 16t-19 43z" />
<glyph unicode="0" horiz-adv-x="1179" d="M123 446v705q0 193 137 330t329.5 137t330 -137.5t137.5 -329.5v-705q0 -193 -137.5 -329.5t-330 -136.5t-329.5 136.5t-137 329.5zM246 446q0 -143 100 -243.5t243.5 -100.5t244 100.5t100.5 243.5v705q0 143 -100.5 243.5t-244 100.5t-243.5 -100.5t-100 -243.5v-705z " />
<glyph unicode="1" horiz-adv-x="1179" d="M184 61.5q0 24.5 16.5 43t45.5 18.5h344v1309l-271 -146q-14 -8 -30 -8q-25 0 -42.5 18.5t-17.5 42.5q0 35 33 54l338 188q33 16 55 16q57 0 58 -61v-1413h344q29 0 45 -18.5t16 -43t-16.5 -43t-44.5 -18.5h-811q-29 0 -45.5 18.5t-16.5 43z" />
<glyph unicode="2" horiz-adv-x="1177" d="M102 53q0 23 19 47l193 241l251 312l207 271q115 156 115 303q0 115 -86 191.5t-219 76.5q-70 0 -145 -42t-109.5 -77t-48.5 -51v-2q-18 -25 -45 -25t-46.5 19.5t-19.5 44.5q0 23 14 39q10 14 31 35q174 182 369 182q178 0 303 -109.5t125 -281.5q0 -96 -35 -187.5 t-70 -142.5t-114 -149l-494 -625h684q29 0 45 -18.5t16 -43t-16 -43t-45 -18.5h-811q-68 0 -68 53z" />
<glyph unicode="3" horiz-adv-x="1179" d="M143 1352q0 16 11 32q8 16 24 39q143 195 367 195q195 0 320.5 -117t125.5 -309q0 -254 -207 -375q104 -59 166 -159.5t62 -225.5q0 -193 -136.5 -320.5t-330.5 -127.5q-115 0 -225.5 65.5t-165.5 167.5q-8 16 -9 33q0 25 17.5 40t42.5 15q33 0 55 -31l16 -22 q106 -145 269 -145q145 0 244.5 93t99.5 232t-98.5 231.5t-245.5 92.5q-31 0 -47.5 18.5t-16.5 43t16.5 43t47.5 18.5q143 0 233 87t90 226t-88 221t-235 82q-84 0 -164 -47t-121 -121q-18 -33 -53 -33q-25 0 -44.5 16.5t-19.5 41.5z" />
<glyph unicode="4" horiz-adv-x="1179" d="M92 461q0 6 4 26l2 5q131 356 391 727q137 195 293 360q27 27 54 27q53 0 53 -70v-1008h137q29 0 45 -18t16 -43t-16 -43t-45 -18h-137v-345q0 -29 -18.5 -45t-43 -16t-43 16.5t-18.5 44.5v345h-612q-27 0 -44.5 15t-17.5 40zM244 528h522v846q-329 -389 -522 -846z" />
<glyph unicode="5" horiz-adv-x="1179" d="M123 446q0 29 18.5 45.5t43 16.5t43 -16.5t18.5 -45.5q0 -143 100 -243.5t243.5 -100.5t244 100.5t100.5 243.5v162q0 143 -100.5 243.5t-243.5 100.5q-84 0 -174 -28.5t-150 -79.5q-25 -23 -53 -23q-23 0 -37 16.5t-14 45.5q0 2 1 7t1 9l102 647q2 20 21.5 35.5 t40.5 15.5h579q29 0 45.5 -18t16.5 -43t-16.5 -43t-45.5 -18h-526l-74 -463q135 63 283 63q193 0 330 -136t137 -331v-162q0 -193 -137.5 -329.5t-330 -136.5t-329.5 136.5t-137 329.5z" />
<glyph unicode="6" horiz-adv-x="1179" d="M143 446v162q0 217 53.5 402.5t181.5 342t320 232.5l109 33q2 0 6 1t6 1q27 0 43.5 -19.5t16.5 -46.5q0 -51 -52 -59q-35 -4 -84 -25q-322 -127 -428 -501q129 106 295 106q193 0 330 -136t137 -331v-162q0 -193 -137 -329.5t-329.5 -136.5t-330 136.5t-137.5 329.5z M266 446q0 -143 100.5 -243.5t244 -100.5t243.5 100.5t100 243.5v162q0 143 -100 243.5t-243.5 100.5t-244 -100t-100.5 -244v-162z" />
<glyph unicode="7" horiz-adv-x="1181" d="M102 1536q0 25 16.5 43t45.5 18h831q27 0 45.5 -16t18.5 -41q0 -2 -1 -6t-1 -6q-25 -178 -103 -457q-147 -541 -417 -1038q-18 -33 -54 -33q-25 0 -43 17.5t-18 41.5q0 16 8 31q367 674 494 1385h-760q-29 0 -45.5 18t-16.5 43z" />
<glyph unicode="8" horiz-adv-x="1179" d="M143 410q0 156 83 251t235 177q-125 74 -195.5 165t-70.5 230q0 170 112.5 277.5t282.5 107.5q174 0 284.5 -107.5t110.5 -277.5q0 -139 -70.5 -230.5t-195.5 -164.5q152 -82 234.5 -177.5t82.5 -250.5q0 -182 -130 -306t-316 -124q-182 0 -314.5 125t-132.5 305z M266 410q0 -127 94.5 -217.5t229.5 -90.5q137 0 230 89.5t93 218.5q0 53 -19.5 100t-44 80t-74.5 68.5t-85 55.5l-100 54l-101 -54q-35 -19 -85 -55t-74.5 -69t-44 -80t-19.5 -100zM317 1233q0 -113 71 -185.5t202 -142.5q131 70 201.5 142.5t70.5 185.5q0 117 -74.5 189.5 t-197.5 72.5q-121 0 -197 -72.5t-76 -189.5z" />
<glyph unicode="9" horiz-adv-x="1179" d="M102 989v162q0 193 137.5 330t330 137t329.5 -137.5t137 -329.5v-162q0 -217 -53 -402.5t-181 -342t-321 -232.5l-108 -32q-2 0 -6.5 -1.5t-6.5 -1.5q-27 0 -43 19.5t-16 46.5q0 51 51 59q35 4 84 25q322 127 428 502q-129 -106 -295 -107q-193 0 -330 136t-137 331z M225 989q0 -143 100.5 -243.5t244 -100.5t243.5 100.5t100 243.5v162q0 143 -100 243.5t-243.5 100.5t-244 -100.5t-100.5 -243.5v-162z" />
<glyph unicode=":" horiz-adv-x="368" d="M123 61v164q0 29 18.5 45.5t43 16.5t43 -16.5t18.5 -45.5v-164q0 -29 -18.5 -45t-43 -16t-43 16t-18.5 45zM123 911v164q0 29 18.5 45.5t43 16.5t43 -16.5t18.5 -45.5v-164q0 -29 -18.5 -45t-43 -16t-43 16t-18.5 45z" />
<glyph unicode=";" horiz-adv-x="430" d="M0 -182q0 27 27 47q8 6 20 20q137 133 137 340q0 29 18.5 45.5t43 16.5t43 -16.5t18.5 -45.5q0 -125 -56 -257t-153 -201q-14 -12 -37 -13q-25 0 -43 19.5t-18 44.5zM184 911v164q0 29 18.5 45.5t43 16.5t43 -16.5t18.5 -45.5v-164q0 -29 -18.5 -45t-43 -16t-43 16 t-18.5 45z" />
<glyph unicode="&#x3c;" horiz-adv-x="1064" d="M61 743.5q0 26.5 21 44.5l756 682q23 18 41 19q25 0 44 -19.5t19 -44.5q0 -29 -22 -45l-705 -637l705 -637q23 -16 22 -45q0 -25 -19.5 -44t-43.5 -19q-18 0 -41 18l-756 682q-21 19 -21 45.5z" />
<glyph unicode="=" horiz-adv-x="1310" d="M102 573.5q0 24.5 16.5 43t45.5 18.5h983q29 0 45 -18.5t16 -43t-16 -43t-45 -18.5h-983q-29 0 -45.5 18.5t-16.5 43zM102 1024q0 25 16.5 43t45.5 18h983q29 0 45 -18t16 -43t-16 -43t-45 -18h-983q-29 0 -45.5 18t-16.5 43z" />
<glyph unicode="&#x3e;" horiz-adv-x="1064" d="M123 61q0 27 20 45l707 637l-707 637q-20 18 -20 45q0 25 18.5 44.5t44.5 19.5q18 0 41 -19l756 -682q20 -20 20.5 -44.5t-20.5 -45.5l-756 -682q-23 -18 -41 -18q-27 0 -45 19t-18 44z" />
<glyph unicode="?" horiz-adv-x="1003" d="M102 1339q0 12 7 27q6 16 20 41q59 98 154.5 154.5t210.5 56.5q176 0 281.5 -101.5t105.5 -269.5q0 -100 -37 -183t-94.5 -141.5t-118 -111.5t-115.5 -120.5t-78 -143.5q-12 -45 -57 -45q-25 0 -44.5 16.5t-19.5 42.5q0 6 5 19q12 45 46.5 106.5t107.5 134.5l131 128 q58 54 104.5 134t46.5 164q0 117 -67.5 182.5t-196.5 65.5q-86 0 -163 -49t-110 -129q-16 -37 -55 -37q-25 0 -44.5 17t-19.5 42zM317 61v164q0 29 18.5 45.5t43 16.5t43 -16.5t18.5 -45.5v-164q0 -29 -18.5 -45t-43 -16t-43 16t-18.5 45z" />
<glyph unicode="@" horiz-adv-x="1785" d="M123 367v475q0 322 227.5 549t549 227t542.5 -227.5t221 -548.5v-559q0 -123 -78 -218.5t-203 -95.5q-96 0 -163.5 48.5t-90.5 132.5q-133 -129 -305 -130q-154 0 -260 105.5t-106 259.5q0 51 6 116.5t17.5 144.5t15.5 118q16 164 143 278.5t291 114.5q166 0 274 -119 l2 17q8 61 64 61q29 0 44 -22.5t13 -44.5l-84 -793q-1 -12 -1 -24q0 -56 32 -94q39 -46 108 -46q68 0 113 56.5t45 134.5v559q0 272 -186.5 462.5t-454.5 190.5q-270 0 -461.5 -191.5t-191.5 -461.5v-475q0 -270 191.5 -462t461.5 -192q147 0 272 70q16 8 31 8 q29 0 45.5 -19.5t16.5 -43.5q0 -31 -29 -52q-141 -86 -336 -86q-322 0 -549 227.5t-227 549.5zM580 385q0 -104 69.5 -173t173.5 -69q115 0 207 79t103 188l38 352q2 17 2 33q0 92 -60 159q-71 80 -183 80q-117 0 -208 -83t-106 -199q-2 -18 -19 -159.5t-17 -207.5z" />
<glyph unicode="A" horiz-adv-x="1230" d="M61 59q0 8 5 21l491 1474q18 53 57 54q41 0 60 -54l491 -1474q4 -12 4 -21q0 -27 -19.5 -43t-45.5 -16q-41 0 -55 43l-154 461h-559l-154 -461q-14 -43 -57 -43q-25 0 -44.5 16t-19.5 43zM377 627h477l-240 714z" />
<glyph unicode="B" horiz-adv-x="1200" d="M164 61v768v707q0 25 18.5 43t42.5 18h426q172 0 294 -121.5t122 -291.5q0 -111 -52 -203t-143 -150q102 -57 164 -160.5t62 -224.5q0 -186 -131 -316t-316 -130h-426q-25 0 -43 18t-18 43zM287 123h364q133 0 228.5 94t95.5 227.5t-95.5 228.5t-228.5 95h-364v-645z M287 891h364q121 0 206 86t85 207l2 -2q0 121 -86 207t-207 86h-364v-584z" />
<glyph unicode="C" horiz-adv-x="1224" d="M123 508v582q0 217 155.5 372.5t372.5 155.5q123 0 253 -52.5t200 -142.5q14 -20 14 -39q0 -27 -19.5 -45t-43.5 -18q-27 0 -45 25l-21 20q-135 129 -338 129q-168 0 -286.5 -119t-118.5 -286v-582q0 -168 118.5 -287t286.5 -119q96 0 197.5 40t161.5 110q16 23 45 22 q27 0 47 -18t20 -43q0 -20 -18 -39q-10 -12 -31 -33q-172 -162 -422 -161q-217 0 -372.5 155.5t-155.5 372.5z" />
<glyph unicode="D" horiz-adv-x="1312" d="M164 61v1475q0 25 18.5 43t42.5 18h426q217 0 373 -155.5t156 -372.5v-541q0 -217 -156 -372.5t-373 -155.5h-426q-25 0 -43 18t-18 43zM287 123h364q168 0 287 118.5t119 286.5v541q0 168 -119 287t-287 119h-364v-1352z" />
<glyph unicode="E" horiz-adv-x="1157" d="M164 61v1475q0 25 18.5 43t42.5 18h768q29 0 45.5 -18t16.5 -43t-16.5 -43t-45.5 -18h-706v-578h645q29 0 45 -18.5t16 -43t-16 -43t-45 -18.5h-645v-651h706q29 0 45.5 -18.5t16.5 -43t-16.5 -43t-45.5 -18.5h-768q-25 0 -43 18t-18 43z" />
<glyph unicode="F" horiz-adv-x="1136" d="M164 61v1475q0 25 18.5 43t42.5 18h768q29 0 45.5 -18t16.5 -43t-16.5 -43t-45.5 -18h-706v-578h645q29 0 45 -18.5t16 -43t-16 -43t-45 -18.5h-645v-713q0 -29 -18.5 -45t-43 -16t-43 16t-18.5 45z" />
<glyph unicode="G" horiz-adv-x="1302" d="M123 508v582q0 217 155.5 372.5t372.5 155.5q123 0 253 -52.5t200 -142.5q14 -20 14 -39q0 -27 -19.5 -45t-43.5 -18q-27 0 -45 25l-21 20q-135 129 -338 129q-168 0 -286.5 -119t-118.5 -286v-582q0 -168 118.5 -287t286.5 -119t287 119t119 287v221h-389 q-29 0 -45.5 18.5t-16.5 43t16.5 43t45.5 18.5h450q25 0 43.5 -18.5t18.5 -42.5v-283q0 -217 -156 -372.5t-373 -155.5t-372.5 155.5t-155.5 372.5z" />
<glyph unicode="H" horiz-adv-x="1343" d="M164 61v1475q0 29 18.5 45t43 16t43 -16t18.5 -45v-614h770v614q0 29 18.5 45t43 16t43 -16t18.5 -45v-1475q0 -29 -18.5 -45t-43 -16t-43 16.5t-18.5 44.5v738h-770v-738q0 -29 -18.5 -45t-43 -16t-43 16t-18.5 45z" />
<glyph unicode="I" horiz-adv-x="942" d="M82 61.5q0 24.5 16.5 43t44.5 18.5h267v1352h-267q-29 0 -45 18t-16 43t16.5 43t44.5 18h656q29 0 45 -18t16 -43t-16.5 -43t-44.5 -18h-267v-1352h267q29 0 45 -18.5t16 -43t-16.5 -43t-44.5 -18.5h-656q-29 0 -45 18.5t-16 43z" />
<glyph unicode="J" horiz-adv-x="1128" d="M82 215q0 25 19.5 42t43.5 17q35 0 52 -30q4 -6 14 -19q100 -123 276 -123q158 0 261.5 117t103.5 289v967h-508q-29 0 -45 18t-16 43t16 43t45 18h569q25 0 43.5 -18t18.5 -43v-1028q0 -217 -136.5 -372.5t-351.5 -155.5q-115 0 -228.5 54t-166.5 148q-10 13 -10 33z " />
<glyph unicode="K" horiz-adv-x="1308" d="M164 61v1475q0 29 18.5 45t43 16t43 -16t18.5 -45v-866l786 907q23 23 45 22q27 0 46.5 -19t19.5 -44q0 -18 -17 -41l-524 -602l590 -795q14 -16 14 -37q0 -25 -20.5 -43t-44.5 -18q-29 0 -47 25l-574 772l-274 -316v-420q0 -29 -18.5 -45t-43 -16t-43 16t-18.5 45z" />
<glyph unicode="L" horiz-adv-x="1116" d="M164 61v1475q0 29 18.5 45t43 16t43 -16t18.5 -45v-1413h706q29 0 45.5 -18.5t16.5 -43t-16.5 -43t-45.5 -18.5h-768q-25 0 -43 18t-18 43z" />
<glyph unicode="M" horiz-adv-x="1679" d="M164 61v1471q0 33 17.5 52.5t39.5 19.5q39 0 62 -48l557 -1335l557 1335q23 47 61 48q23 0 40.5 -19.5t17.5 -52.5v-1471q0 -29 -18.5 -45t-43 -16t-43 16.5t-18.5 44.5v1164l-496 -1188q-23 -47 -57.5 -47t-57.5 47l-495 1188v-1164q0 -29 -18.5 -45t-43 -16t-43 16 t-18.5 45z" />
<glyph unicode="N" horiz-adv-x="1343" d="M164 61v1475q0 33 16.5 52.5t38.5 19.5q35 0 60 -39l778 -1288v1255q0 29 18.5 45t43 16t43 -16t18.5 -45v-1475q0 -33 -16.5 -52t-39.5 -19q-35 0 -59 39l-778 1288v-1256q0 -29 -18.5 -45t-43 -16t-43 16t-18.5 45z" />
<glyph unicode="O" horiz-adv-x="1302" d="M123 508v582q0 217 155.5 372.5t372.5 155.5t373 -155.5t156 -372.5v-582q0 -217 -156 -372.5t-373 -155.5t-372.5 155.5t-155.5 372.5zM246 508q0 -168 118.5 -287t286.5 -119t287 119t119 287v582q0 168 -119 286.5t-287 118.5t-286.5 -119t-118.5 -286v-582z" />
<glyph unicode="P" horiz-adv-x="1181" d="M164 61v580v895q0 25 18.5 43t42.5 18h365q211 0 360.5 -148.5t149.5 -359t-149.5 -360t-360.5 -149.5h-303v-519q0 -29 -18.5 -45t-43 -16t-43 16t-18.5 45zM287 702h303q160 0 272.5 113t112.5 275l2 -3q0 162 -113.5 275t-273.5 113h-303v-773z" />
<glyph unicode="Q" horiz-adv-x="1302" d="M123 508v582q0 217 155.5 372.5t372.5 155.5t373 -155.5t156 -372.5v-582q0 -201 -134.5 -351.5t-332.5 -172.5v-45q0 -82 57 -138.5t137 -56.5q29 0 45.5 -18.5t16.5 -43t-16.5 -43t-45.5 -18.5q-131 0 -224 93t-93 225v45q-199 23 -333 173t-134 351zM246 508 q0 -168 118.5 -287t286.5 -119t287 119t119 287v582q0 168 -119 286.5t-287 118.5t-286.5 -119t-118.5 -286v-582z" />
<glyph unicode="R" horiz-adv-x="1206" d="M164 61v1475q0 25 18.5 43t42.5 18h365q211 0 360.5 -148.5t149.5 -358.5q0 -164 -93.5 -294t-240.5 -186l326 -516q12 -18 12 -35q0 -25 -20.5 -42t-45.5 -17q-33 0 -49 29l-352 553q-14 -2 -47 -2h-303v-519q0 -29 -18.5 -45t-43 -16t-43 16t-18.5 45zM287 702h303 q160 0 273.5 112t113.5 273.5t-113.5 274.5t-273.5 113h-303v-773z" />
<glyph unicode="S" horiz-adv-x="1208" d="M123 207q0 25 19.5 43t43.5 18q29 0 50 -26q6 -8 16 -19q115 -121 311 -121q178 0 289 88.5t111 221.5q0 90 -46.5 157.5t-119 107.5t-160.5 74l-177 70q-89 37 -162 83t-119 125t-46 185q0 184 134 294t317 110q123 0 247.5 -60.5t196.5 -156.5q14 -16 14 -37 q0 -25 -18 -42t-43 -17q-29 0 -49 22q-8 10 -23 25q-137 143 -325 143q-141 0 -234.5 -78t-93.5 -203q0 -80 46 -139t119 -97t162 -71t177 -71.5t160.5 -89t118.5 -136.5t46 -198q0 -197 -152.5 -314.5t-369.5 -117.5q-119 0 -242.5 51t-185.5 141q-12 19 -12 35z" />
<glyph unicode="T" horiz-adv-x="1146" d="M20 1536q0 25 16.5 43t45.5 18h983q29 0 45 -18t16 -43t-16 -43t-45 -18h-430v-1414q0 -29 -18.5 -45t-43 -16t-43 16.5t-18.5 44.5v1414h-430q-29 0 -45.5 18t-16.5 43z" />
<glyph unicode="U" horiz-adv-x="1343" d="M143 508v1028q0 29 18.5 45t43 16t43 -16t18.5 -45v-1028q0 -168 119 -287t287 -119t286.5 119t118.5 287v1028q0 29 18.5 45t43 16t43 -16t18.5 -45v-1028q0 -217 -155.5 -372.5t-372.5 -155.5t-373 155.5t-156 372.5z" />
<glyph unicode="V" horiz-adv-x="1189" d="M41 1538q0 27 19.5 43t43.5 16q43 0 58 -43l432 -1312l434 1312q14 43 55 43q27 0 46.5 -16t19.5 -43q0 -8 -4 -20l-492 -1491q-18 -53 -59 -54q-43 0 -57 54l-492 1491q-4 12 -4 20z" />
<glyph unicode="W" horiz-adv-x="1925" d="M41 1538q0 27 19.5 43t43.5 16q45 0 58 -45l354 -1286l389 1288q16 53 58 54q43 0 59 -54l389 -1288l352 1286q14 45 58 45q27 0 45 -16t18 -43q0 -12 -2 -18l-409 -1491q-14 -55 -60 -56q-41 0 -57 54l-393 1296l-392 -1296q-16 -53 -59 -54q-45 0 -59 56l-410 1491 q-2 6 -2 18z" />
<glyph unicode="X" horiz-adv-x="1187" d="M82 59q0 20 10 33l430 737l-395 676q-10 12 -10 33q0 25 19.5 42t43.5 17q35 0 51 -30l363 -617l362 617q16 31 52 30q25 0 44 -17t19 -42q0 -20 -10 -33l-395 -676l430 -737q10 -12 10 -33q0 -25 -19.5 -42t-44.5 -17q-35 0 -51 31l-397 676l-397 -676q-16 -31 -52 -31 q-25 0 -44 17t-19 42z" />
<glyph unicode="Y" horiz-adv-x="1189" d="M41 1538q0 25 19.5 42t43.5 17q35 0 52 -30l438 -733l440 733q16 31 51 30q25 0 44.5 -17t19.5 -42q0 -20 -10 -33l-484 -809v-635q0 -29 -18.5 -45t-43 -16t-43 16.5t-18.5 44.5v635l-481 809q-10 13 -10 33z" />
<glyph unicode="Z" horiz-adv-x="1200" d="M92 53q0 16 12 39l826 1383h-725q-29 0 -45.5 18t-16.5 43t16.5 43t45.5 18h833q31 0 48.5 -15t17.5 -38q0 -16 -12 -39l-826 -1382h781q29 0 45 -18.5t16 -43t-16.5 -43t-44.5 -18.5h-889q-31 0 -48.5 15t-17.5 38z" />
<glyph unicode="[" horiz-adv-x="641" d="M123 -307v1843q0 25 18.5 43t42.5 18h334q29 0 45.5 -18t16.5 -43t-16.5 -43t-45.5 -18h-272v-1721h272q29 0 45.5 -18.5t16.5 -43t-16.5 -43t-45.5 -18.5h-334q-25 0 -43 18.5t-18 43.5z" />
<glyph unicode="\" horiz-adv-x="688" d="M41 1538q0 27 19.5 43t43.5 16q47 0 58 -45l483 -1695q2 -6 2 -19q0 -27 -18.5 -43t-44.5 -16q-43 0 -58 45l-483 1696q-2 6 -2 18z" />
<glyph unicode="]" horiz-adv-x="641" d="M61 -307.5q0 24.5 16.5 43t45.5 18.5h272v1721h-272q-29 0 -45.5 18t-16.5 43t16.5 43t45.5 18h334q25 0 43 -18t18 -43v-1843q0 -25 -18.5 -43.5t-42.5 -18.5h-334q-29 0 -45.5 18.5t-16.5 43z" />
<glyph unicode="^" horiz-adv-x="1095" d="M123 858q0 16 8 31l363 676q23 41 53 41q33 0 55 -41l363 -676q8 -14 8 -31q0 -25 -20.5 -42t-45.5 -17q-35 0 -51 32l-309 576l-307 -576q-16 -33 -54 -32q-25 0 -44 17t-19 42z" />
<glyph unicode="_" horiz-adv-x="1024" d="M-41 -348.5q0 24.5 16.5 43t44.5 18.5h984q29 0 45 -18.5t16 -43t-16.5 -43t-44.5 -18.5h-984q-29 0 -45 18.5t-16 43z" />
<glyph unicode="`" horiz-adv-x="825" d="M250 1480.5q0 22.5 15.5 39t35.5 16.5q14 0 33 -12l223 -178q18 -16 18 -39t-15 -39.5t-36 -16.5q-14 0 -32 13l-224 178q-18 16 -18 38.5z" />
<glyph unicode="a" horiz-adv-x="968" d="M102 309q0 143 100.5 228.5t258.5 117.5l262 56v94q0 106 -61.5 167.5t-182.5 61.5q-66 0 -114 -19.5t-68.5 -42t-40.5 -42t-39 -19.5q-25 0 -44 17.5t-19 42.5q0 27 28 59q100 127 297 127q170 0 268.5 -97t98.5 -255v-473q0 -154 -108.5 -253t-262.5 -99 q-156 0 -264.5 87.5t-108.5 241.5zM225 311q0 -94 67.5 -151.5t180.5 -57.5q109 0 179.5 64.5t70.5 165.5v254l-264 -60q-109 -25 -171.5 -81t-62.5 -134z" />
<glyph unicode="b" horiz-adv-x="1064" d="M143 379v1157q0 29 18.5 45t43 16t43 -16t18.5 -45v-489q117 111 277 110q166 0 282.5 -116.5t116.5 -282.5v-379q0 -166 -116.5 -282.5t-282.5 -116.5t-283 116.5t-117 282.5zM266 379q0 -115 81 -196t195.5 -81t195.5 81t81 196v379q0 115 -81 195.5t-195.5 80.5 t-195.5 -81t-81 -195v-379z" />
<glyph unicode="c" horiz-adv-x="937" d="M123 332v473q0 158 107.5 255t279.5 97q92 0 189.5 -40t144.5 -109q10 -16 10 -35q0 -25 -19.5 -43.5t-43.5 -18.5q-31 0 -50 27q-2 4 -10 12q-78 84 -221 84q-125 0 -194.5 -64.5t-69.5 -164.5v-473q0 -100 69.5 -165t194.5 -65q66 0 132.5 25t98.5 72q20 27 50 26 q25 0 45 -17.5t20 -41.5q0 -18 -12 -37l-23 -27q-117 -123 -311 -122q-172 0 -279.5 97t-107.5 255z" />
<glyph unicode="d" horiz-adv-x="1064" d="M123 379v379q0 166 116.5 282.5t282.5 116.5q160 0 277 -110v489q0 29 18.5 45t43 16t43 -16t18.5 -45v-1157q0 -166 -117 -282.5t-283 -116.5t-282.5 116.5t-116.5 282.5zM246 379q0 -115 81 -196t195.5 -81t195.5 81t81 196v379q0 115 -81 195.5t-195.5 80.5 t-195.5 -81t-81 -195v-379z" />
<glyph unicode="e" horiz-adv-x="1024" d="M123 379v379q0 166 116.5 282.5t282.5 116.5t283 -116.5t117 -282.5v-144q0 -25 -18.5 -43t-43.5 -18h-614v-174q0 -111 89 -194t208 -83q66 0 132 25t99 72q20 27 49 26q25 0 45.5 -17.5t20.5 -41.5q0 -18 -12 -37l-23 -27q-117 -123 -311 -122q-166 0 -293 116.5 t-127 282.5zM246 676h553v82q0 115 -81 195.5t-195.5 80.5t-195.5 -81t-81 -195v-82z" />
<glyph unicode="f" horiz-adv-x="815" d="M41 1075.5q0 24.5 16.5 43t44.5 18.5h187v192q0 123 88 206t223 83q102 0 182 -49q33 -23 33 -53q0 -25 -18.5 -45.5t-42.5 -20.5q-12 0 -59.5 22.5t-94.5 22.5q-86 0 -137 -48t-51 -118v-192h307q29 0 45 -18.5t16 -43t-16 -43t-45 -18.5h-307v-953q0 -29 -18.5 -45 t-43 -16t-43 16.5t-18.5 44.5v953h-187q-29 0 -45 18.5t-16 43z" />
<glyph unicode="g" d="M123 420v338q0 166 116.5 282.5t282.5 116.5t283 -116.5t117 -282.5v-338v-430q0 -166 -117 -283t-283 -117q-92 0 -189 40t-145 110q-10 14 -10 35q0 25 19.5 43t44.5 18q31 0 49 -26q2 -4 10 -13q78 -84 221 -84q115 0 196 81t81 196v141q-117 -111 -277 -111 q-166 0 -282.5 117t-116.5 283zM246 420q0 -115 81 -196t195.5 -81t195.5 81t81 196v338q0 115 -81 195.5t-195.5 80.5t-195.5 -81t-81 -195v-338z" />
<glyph unicode="h" horiz-adv-x="1064" d="M143 61v1475q0 29 18.5 45t43 16t43 -16t18.5 -45v-489q117 111 277 110q166 0 282.5 -116.5t116.5 -282.5v-697q0 -29 -18.5 -45t-43 -16t-43 16.5t-18.5 44.5v697q0 115 -81 195.5t-195.5 80.5t-195.5 -81t-81 -195v-697q0 -29 -18.5 -45t-43 -16t-43 16t-18.5 45z" />
<glyph unicode="i" horiz-adv-x="409" d="M143 61v1014q0 29 18.5 45.5t43 16.5t43 -16.5t18.5 -45.5v-1014q0 -29 -18.5 -45t-43 -16t-43 16t-18.5 45zM143 1372v164q0 29 18.5 45t43 16t43 -16t18.5 -45v-164q0 -29 -18.5 -45t-43 -16t-43 16t-18.5 45z" />
<glyph unicode="j" horiz-adv-x="430" d="M-20 -346q0 27 26 47q8 6 21 20q137 133 137 340v1014q0 29 18.5 45.5t43 16.5t43 -16.5t18.5 -45.5v-1014q0 -125 -56.5 -257t-152.5 -201q-14 -12 -37 -13q-25 0 -43 19.5t-18 44.5zM164 1372v164q0 29 18.5 45t43 16t43 -16t18.5 -45v-164q0 -29 -18.5 -45t-43 -16 t-43 16t-18.5 45z" />
<glyph unicode="k" horiz-adv-x="987" d="M143 61v1475q0 29 18.5 45t43 16t43 -16t18.5 -45v-1001l496 579q20 25 45 25q27 0 46 -19.5t19 -44.5q0 -18 -16 -39l-346 -403l401 -535q14 -16 15 -37q0 -25 -20.5 -43t-45.5 -18q-29 0 -47 25l-385 512l-162 -191v-285q0 -29 -18.5 -45t-43 -16t-43 16t-18.5 45z" />
<glyph unicode="l" horiz-adv-x="450" d="M143 322v1214q0 29 18.5 45t43 16t43 -16t18.5 -45v-1214q0 -70 24.5 -134.5t80.5 -89.5q39 -18 39 -57q0 -25 -17.5 -43t-42.5 -18q-16 0 -24 4q-12 4 -33 18q-150 95 -150 320z" />
<glyph unicode="m" horiz-adv-x="1556" d="M123 61v738q0 150 104.5 254t253.5 104q90 0 169 -43t128 -115q49 72 128 115t169 43q150 0 254.5 -104.5t104.5 -253.5v-738q0 -29 -18.5 -45t-43 -16t-43 16.5t-18.5 44.5v738q0 98 -68.5 166.5t-167 68.5t-167 -68.5t-68.5 -166.5v-738q0 -31 -18.5 -47t-43 -16 t-43 16.5t-18.5 46.5v738q0 98 -68.5 166.5t-167 68.5t-167 -68.5t-68.5 -166.5v-738q0 -29 -18.5 -45t-43 -16t-43 16t-18.5 45z" />
<glyph unicode="n" d="M123 61v697q0 166 116.5 282.5t282.5 116.5t283 -116.5t117 -282.5v-697q0 -29 -18.5 -45t-43 -16t-43 16.5t-18.5 44.5v697q0 115 -81 195.5t-195.5 80.5t-195.5 -81t-81 -195v-697q0 -29 -18.5 -45t-43 -16t-43 16t-18.5 45z" />
<glyph unicode="o" d="M123 379v379q0 166 116.5 282.5t282.5 116.5t283 -116.5t117 -282.5v-379q0 -166 -117 -282.5t-283 -116.5t-282.5 116.5t-116.5 282.5zM246 379q0 -115 81 -196t195.5 -81t195.5 81t81 196v379q0 115 -81 195.5t-195.5 80.5t-195.5 -81t-81 -195v-379z" />
<glyph unicode="p" d="M123 -348v1106q0 166 116.5 282.5t282.5 116.5t283 -116.5t117 -282.5v-379q0 -166 -117 -282.5t-283 -116.5q-160 0 -276 110v-438q0 -29 -18.5 -45.5t-43 -16.5t-43 16.5t-18.5 45.5zM246 379q0 -115 81 -196t195.5 -81t195.5 81t81 196v379q0 115 -81 195.5 t-195.5 80.5t-195.5 -81t-81 -195v-379z" />
<glyph unicode="q" d="M123 379v379q0 166 116.5 282.5t282.5 116.5t283 -116.5t117 -282.5v-1106q0 -29 -18.5 -45.5t-43 -16.5t-43 16.5t-18.5 45.5v438q-117 -111 -277 -110q-166 0 -282.5 116.5t-116.5 282.5zM246 379q0 -115 81 -196t195.5 -81t195.5 81t81 196v379q0 115 -81 195.5 t-195.5 80.5t-195.5 -81t-81 -195v-379z" />
<glyph unicode="r" horiz-adv-x="796" d="M123 61v682q0 180 93 297t265 117q66 0 137.5 -27.5t116.5 -72.5q20 -20 21 -43q0 -25 -18.5 -43.5t-45.5 -18.5q-20 0 -43 19q-4 4 -10 8q-68 55 -158 55q-111 0 -173 -76.5t-62 -214.5v-682q0 -29 -18.5 -45t-43 -16t-43 16t-18.5 45z" />
<glyph unicode="s" horiz-adv-x="909" d="M102 156q0 25 19.5 43t44.5 18q31 0 49 -27l10 -10q76 -78 201 -78q117 0 187.5 58.5t70.5 142.5q0 80 -59.5 132t-143.5 84l-169 67q-85 35 -144 104.5t-59 173.5q0 137 99 215t232 78q88 0 177.5 -44t136.5 -118q10 -16 10 -34q0 -25 -19.5 -42.5t-44.5 -17.5 q-31 0 -51 29q-4 4 -10 14q-80 90 -199 90q-92 0 -150.5 -47t-58.5 -123q0 -59 43 -102t106.5 -66.5t138.5 -56.5t138.5 -68.5t106.5 -104.5t43 -163q0 -145 -111.5 -234t-269.5 -89q-86 0 -176 37.5t-135 103.5q-13 19 -13 35z" />
<glyph unicode="t" horiz-adv-x="919" d="M41 1075.5q0 24.5 16.5 43t44.5 18.5h187v219q0 29 18.5 45t43 16t43 -16.5t18.5 -44.5v-219h362q29 0 45.5 -18.5t16.5 -43t-16.5 -43t-45.5 -18.5h-362v-746q0 -70 51 -118t137 -48q63 0 122.5 37t76.5 37q25 0 42 -19.5t17 -43.5q0 -27 -41 -60q-100 -74 -217 -73 q-135 0 -223 82.5t-88 205.5v746h-187q-29 0 -45 18.5t-16 43z" />
<glyph unicode="u" d="M123 379v696q0 29 18.5 45.5t43 16.5t43 -16.5t18.5 -45.5v-696q0 -115 81 -196t195.5 -81t195.5 81t81 196v696q0 29 18.5 45.5t43 16.5t43 -16.5t18.5 -45.5v-696q0 -166 -117 -282.5t-283 -116.5t-282.5 116.5t-116.5 282.5z" />
<glyph unicode="v" horiz-adv-x="1026" d="M61 1077q0 25 19.5 42.5t44.5 17.5q41 0 55 -39l332 -865l332 865q18 39 55 39q25 0 45.5 -17.5t20.5 -42.5q0 -12 -7 -24l-389 -1014q-18 -49 -57 -49t-57 49l-389 1014q-5 16 -5 24z" />
<glyph unicode="w" horiz-adv-x="1515" d="M61 1077q0 27 19.5 43.5t44.5 16.5q43 0 57 -43l250 -828l268 828q16 53 57.5 53t59.5 -53l266 -828l252 828q12 43 56 43q27 0 45 -16.5t18 -43.5q0 -12 -2 -20l-307 -1014q-16 -53 -59.5 -53t-57.5 53l-270 831l-269 -831q-18 -53 -59 -53t-57 53l-307 1014q-5 8 -5 20 z" />
<glyph unicode="x" horiz-adv-x="976" d="M92 59q0 18 10 35l314 486l-299 462q-10 16 -11 35q0 25 19.5 42.5t44.5 17.5q31 0 51 -29l268 -416l267 416q20 29 51 29q25 0 44 -17.5t19 -42.5q0 -18 -10 -35l-299 -462l313 -486q10 -16 11 -35q0 -25 -19.5 -42t-44.5 -17q-31 0 -51 29l-281 438l-282 -438 q-20 -29 -51 -29q-25 0 -44.5 17t-19.5 42z" />
<glyph unicode="y" horiz-adv-x="987" d="M61 1077q0 27 19.5 43.5t44.5 16.5q39 0 57 -41l305 -852l318 852q14 41 55 41q27 0 46.5 -16.5t19.5 -43.5q0 -10 -6 -22l-531 -1424q-14 -41 -55 -41q-25 0 -44.5 16.5t-19.5 43.5q0 6 4 22l146 394l-354 989q-5 16 -5 22z" />
<glyph unicode="z" horiz-adv-x="937" d="M72 51.5q0 22.5 14 42.5l588 920h-490q-29 0 -45 18.5t-16 43t16.5 43t44.5 18.5h602q31 0 48.5 -14.5t17.5 -37t-14 -43.5l-588 -919h545q29 0 45 -18.5t16 -43t-16.5 -43t-44.5 -18.5h-658q-31 0 -48 14.5t-17 37z" />
<glyph unicode="{" horiz-adv-x="772" d="M20 612.5q0 24.5 16.5 43t47.5 18.5q72 0 121 50t49 120v461q0 121 85 206.5t206 85.5h104q29 0 45.5 -18t16.5 -43t-16.5 -43t-45.5 -18h-104q-70 0 -119 -49.5t-49 -118.5v-463q0 -141 -113 -230q113 -92 113 -231v-461q0 -70 48 -120t116 -50h108q29 0 45.5 -18.5 t16.5 -43t-16.5 -43t-45.5 -18.5h-108q-119 0 -203 86t-84 205v463q0 70 -49 119t-121 49q-31 0 -47.5 18.5t-16.5 43z" />
<glyph unicode="|" horiz-adv-x="532" d="M205 -348v1884q0 29 18.5 45t43 16t43 -16t18.5 -45v-1884q0 -29 -18.5 -45.5t-43 -16.5t-43 16.5t-18.5 45.5z" />
<glyph unicode="}" horiz-adv-x="772" d="M61 -309.5q0 24.5 16.5 43t45.5 18.5h108q68 0 116 50.5t48 117.5v463q0 141 113 229q-113 92 -113 232v461q0 70 -49 120t-119 50h-104q-29 0 -45.5 18t-16.5 43t16.5 43t45.5 18h102q121 0 207 -85t86 -205v-463q0 -70 49 -119t119 -49q31 0 48.5 -18.5t17.5 -43 t-17.5 -43t-46.5 -18.5q-70 0 -120 -49t-50 -121v-461q0 -121 -84 -207t-203 -86h-110q-27 0 -43.5 18.5t-16.5 43z" />
<glyph unicode="~" horiz-adv-x="974" d="M102 842q0 12 11 32q6 10 16 25q92 121 225 121q68 0 116 -28.5t82 -57.5t69 -29q100 0 131 76q18 39 57 39q25 0 44 -17.5t19 -41.5q0 -12 -6 -25q-4 -10 -12 -27q-76 -127 -233 -127q-74 0 -148 57.5t-119 57.5q-39 0 -76.5 -23.5t-58.5 -60.5q-16 -31 -51 -31 q-25 0 -45.5 17.5t-20.5 42.5z" />
<glyph unicode="&#xa1;" horiz-adv-x="409" d="M143 -348v973q0 29 18.5 45t43 16t43 -16.5t18.5 -44.5v-973q0 -29 -18.5 -45.5t-43 -16.5t-43 16.5t-18.5 45.5zM143 963v163q0 29 18.5 45.5t43 16.5t43 -16.5t18.5 -45.5v-163q0 -29 -18.5 -45.5t-43 -16.5t-43 16.5t-18.5 45.5z" />
<glyph unicode="&#xa2;" horiz-adv-x="937" d="M123 578v473q0 141 88 235t233 113v178q0 29 18.5 45t43 16t43 -16t18.5 -45v-178q82 -10 159 -48t118 -98q10 -16 10 -34q0 -25 -19.5 -43.5t-43.5 -18.5q-31 0 -50 27q-2 4 -10 12q-59 63 -164 80v-924q123 18 174 92q20 27 50 27q25 0 45 -17.5t20 -41.5 q0 -18 -12 -37l-23 -27q-98 -102 -254 -119v-168q0 -29 -18.5 -45t-43 -16t-43 16.5t-18.5 44.5v168q-145 18 -233 113t-88 236zM246 578q0 -88 52 -148.5t146 -75.5v920q-94 -14 -146 -74.5t-52 -148.5v-473z" />
<glyph unicode="&#xa3;" horiz-adv-x="1185" d="M102 39q0 18 13.5 45t35.5 57l25 37q53 102 53 223v232h-61q-29 0 -45 18.5t-16.5 43t16 43t45.5 18.5h61v374q0 203 124 345.5t323 142.5q129 0 245.5 -68.5t157.5 -185.5q4 -16 4 -23q0 -27 -19.5 -43t-45.5 -16q-41 0 -55 41q-4 10 -13 23q-82 150 -274 149 q-141 0 -232.5 -103.5t-91.5 -261.5v-374h269q29 0 45 -18.5t16 -43t-16.5 -43t-44.5 -18.5h-269v-232q0 -147 -65 -278h409q88 0 172 32.5t117 102.5q16 37 55 37q25 0 44.5 -17.5t19.5 -41.5q0 -10 -6 -27q-6 -14 -23 -37q-59 -86 -160.5 -129t-218.5 -43h-528 q-66 0 -66 39z" />
<glyph unicode="&#xa5;" horiz-adv-x="1189" d="M41 1538q0 25 19.5 42t43.5 17q35 0 52 -30l438 -733l440 733q16 31 51 30q25 0 44.5 -17t19.5 -42q0 -20 -10 -33l-484 -809v-88h265q29 0 45 -18.5t16 -43t-16.5 -43t-44.5 -18.5h-265v-129h265q29 0 45 -18.5t16 -43t-16.5 -43t-44.5 -18.5h-265v-172q0 -29 -18.5 -45 t-43 -16t-43 16.5t-18.5 44.5v172h-264q-29 0 -45 18.5t-16 43t16.5 43t44.5 18.5h264v129h-264q-29 0 -45 18.5t-16 43t16.5 43t44.5 18.5h264v88l-481 809q-10 13 -10 33z" />
<glyph unicode="&#xa6;" horiz-adv-x="491" d="M184 -348v829q0 29 18.5 45.5t43 16.5t43 -16.5t18.5 -45.5v-829q0 -29 -18.5 -45.5t-43 -16.5t-43 16.5t-18.5 45.5zM184 707v829q0 29 18.5 45t43 16t43 -16t18.5 -45v-829q0 -29 -18.5 -45.5t-43 -16.5t-43 16.5t-18.5 45.5z" />
<glyph unicode="&#xa7;" horiz-adv-x="1208" d="M123 -162q0 25 19.5 43.5t43.5 18.5q29 0 50 -27q6 -8 16 -18q115 -121 311 -121q178 0 289 88t111 221q0 25 -6.5 50.5t-11.5 39.5t-18.5 43t-15.5 33l-2 4q-49 59 -151.5 103t-204.5 77t-199.5 77t-159 128t-61.5 207q0 119 60 207q-59 86 -60 202q0 184 134 294 t317 110q123 0 247.5 -60.5t196.5 -156.5q14 -16 14 -37q0 -25 -18 -42t-43 -17q-29 0 -49 22q-8 10 -23 25q-137 143 -325 143q-141 0 -234.5 -78t-93.5 -203q0 -82 46 -139t119 -90t162 -61.5t177 -62.5t160.5 -81t118.5 -130t46 -197q0 -113 -53 -201q53 -88 53 -209 q0 -197 -152.5 -314.5t-369.5 -117.5q-119 0 -242.5 51t-185.5 141q-12 19 -12 35zM256 805q0 -100 77 -168t176 -97.5t230 -79.5t205 -110q18 47 19 103q0 113 -76 188.5t-172.5 106t-228.5 79t-203 97.5q-27 -58 -27 -119z" />
<glyph unicode="&#xa8;" horiz-adv-x="825" d="M213 1298v164q0 25 15.5 38t36 13t35.5 -13t15 -38v-164q0 -25 -15 -38t-35.5 -13t-36 13t-15.5 38zM502 1298v164q0 25 15 38t35.5 13t36 -13t15.5 -38v-164q0 -25 -15.5 -38t-36 -13t-35.5 13t-15 38z" />
<glyph unicode="&#xa9;" horiz-adv-x="1818" d="M102 801q0 334 236.5 575.5t570.5 241.5t570.5 -241.5t236.5 -575.5t-236.5 -575.5t-570.5 -241.5t-570.5 241.5t-236.5 575.5zM225 800.5q0 -284.5 201 -489.5t483.5 -205t483 205t200.5 489.5t-200.5 489.5t-483 205t-483.5 -205t-201 -489.5zM559 637v324 q0 141 100.5 241.5t241.5 100.5q78 0 162 -34t129 -93q14 -16 14 -39q0 -25 -19.5 -43.5t-44 -18.5t-46.5 25q-2 4 -11 10q-76 70 -184 70q-90 0 -154.5 -64.5t-64.5 -154.5v-324q0 -90 64.5 -154.5t154.5 -64.5q127 0 195 80q20 23 47 22q25 0 45 -18.5t20 -42.5 q0 -20 -16 -37q-6 -10 -21 -23q-111 -104 -270 -104q-141 0 -241.5 100.5t-100.5 241.5z" />
<glyph unicode="&#xaa;" horiz-adv-x="968" d="M102 811q0 139 97.5 223t251.5 119q195 45 272 59v54q0 106 -61.5 167.5t-182.5 61.5q-61 0 -121.5 -21.5t-85.5 -68.5q-23 -33 -54.5 -34t-52.5 28q-12 15 -12 32q0 15 9 31q6 10 20 29q98 127 297 127q170 0 268.5 -97.5t98.5 -254.5v-432q0 -154 -108.5 -253.5 t-262.5 -99.5q-156 0 -264.5 88t-108.5 242zM110 305q-8 15 -8 30.5t8 31.5q15 31 54 30h620q39 0 55 -30q8 -15 7.5 -30.5t-7.5 -31.5q-15 -31 -55 -31h-620q-39 0 -54 31zM225 813q0 -94 67.5 -151.5t180.5 -57.5q109 0 179.5 64.5t70.5 165.5v253l-264 -59 q-109 -25 -171.5 -81t-62.5 -134z" />
<glyph unicode="&#xab;" horiz-adv-x="1081" d="M102 578q0 49 60 98l317 272q18 18 41 19q25 0 43.5 -19.5t18.5 -44.5q0 -27 -21 -45l-313 -280l313 -281q20 -18 21 -45q0 -25 -18.5 -44.5t-43.5 -19.5q-23 0 -41 19l-317 272q-60 52 -60 99zM459 578q0 49 59 98l318 272q20 18 41 19q25 0 43 -19.5t18 -44.5 q0 -27 -20 -45l-314 -280l314 -281q20 -18 20 -45q0 -25 -18.5 -44.5t-42.5 -19.5q-20 0 -41 19l-318 272q-59 52 -59 99z" />
<glyph unicode="&#xad;" horiz-adv-x="1310" d="M102 798.5q0 24.5 16.5 43t45.5 18.5h983q29 0 45 -18.5t16 -43t-16 -43t-45 -18.5h-983q-29 0 -45.5 18.5t-16.5 43z" />
<glyph unicode="&#xae;" horiz-adv-x="1818" d="M102 801q0 334 236.5 575.5t570.5 241.5t570.5 -241.5t236.5 -575.5t-236.5 -575.5t-570.5 -241.5t-570.5 241.5t-236.5 575.5zM225 800.5q0 -284.5 201 -489.5t483.5 -205t483 205t200.5 489.5t-200.5 489.5t-483 205t-483.5 -205t-201 -489.5zM623 356v349v536 q0 25 18 43.5t43 18.5h219q137 0 233.5 -96.5t96.5 -233.5q0 -96 -52.5 -177t-136.5 -122l181 -285q10 -16 10 -35q0 -25 -19.5 -42t-44.5 -17q-31 0 -51 29l-200 319h-17h-158v-287q0 -29 -18 -45t-43 -16t-43 16t-18 45zM745 766h158q84 0 145.5 60.5t61.5 146.5 t-60.5 146.5t-146.5 60.5h-158v-414z" />
<glyph unicode="&#xaf;" horiz-adv-x="825" d="M201 1366q0 20 14 35.5t37 15.5h323q25 0 37.5 -16.5t12.5 -34.5t-12.5 -34.5t-37.5 -16.5h-323q-23 0 -37 15.5t-14 35.5z" />
<glyph unicode="&#xb0;" horiz-adv-x="817" d="M102 1311q0 127 89.5 217t216.5 90t217 -89t90 -216t-89 -217t-216 -90t-217.5 89t-90.5 216zM225 1313q0 -76 53.5 -130.5t129 -54.5t130 54.5t54.5 130.5v-2q0 76 -53.5 130t-129 54t-130 -53t-54.5 -129z" />
<glyph unicode="&#xb1;" horiz-adv-x="1474" d="M41 61.5q0 24.5 16.5 43t44.5 18.5h1270q29 0 45.5 -18.5t16.5 -43t-16.5 -43t-45.5 -18.5h-1270q-29 0 -45 18.5t-16 43zM41 798.5q0 24.5 16.5 43t44.5 18.5h574v574q0 29 18.5 45t43 16t43 -16.5t18.5 -44.5v-574h573q29 0 45.5 -18.5t16.5 -43t-16.5 -43t-45.5 -18.5 h-573v-409q0 -29 -18.5 -45.5t-43 -16.5t-43 16.5t-18.5 45.5v409h-574q-29 0 -45 18.5t-16 43z" />
<glyph unicode="&#xb2;" horiz-adv-x="1177" d="M102 53q0 23 19 47l193 241l251 312l207 271q115 156 115 303q0 115 -86 191.5t-219 76.5q-70 0 -145 -42t-109.5 -77t-48.5 -51v-2q-18 -25 -45 -25t-46.5 19.5t-19.5 44.5q0 23 14 39q10 14 31 35q174 182 369 182q178 0 303 -109.5t125 -281.5q0 -96 -35 -187.5 t-70 -142.5t-114 -149l-494 -625h684q29 0 45 -18.5t16 -43t-16 -43t-45 -18.5h-811q-68 0 -68 53z" />
<glyph unicode="&#xb3;" horiz-adv-x="1179" d="M143 1352q0 16 11 32q8 16 24 39q143 195 367 195q195 0 320.5 -117t125.5 -309q0 -254 -207 -375q104 -59 166 -159.5t62 -225.5q0 -193 -136.5 -320.5t-330.5 -127.5q-115 0 -225.5 65.5t-165.5 167.5q-8 16 -9 33q0 25 17.5 40t42.5 15q33 0 55 -31l16 -22 q106 -145 269 -146q145 0 244.5 93.5t99.5 232.5t-98.5 231.5t-245.5 92.5q-31 0 -47.5 18.5t-16.5 43t16.5 43t47.5 18.5q143 0 233 87t90 226t-88 221t-235 82q-84 0 -164 -47t-121 -121q-18 -33 -53 -33q-25 0 -44.5 16.5t-19.5 41.5z" />
<glyph unicode="&#xb4;" horiz-adv-x="825" d="M250 1306.5q0 22.5 18 39.5l224 178q18 12 32 12q20 0 35.5 -16.5t15.5 -39t-18 -38.5l-223 -178q-18 -12 -33 -13q-20 0 -35.5 16.5t-15.5 39z" />
<glyph unicode="&#xb6;" horiz-adv-x="1171" d="M61 1087.5q0 210.5 148.5 360t359.5 149.5h365q25 0 44 -18t19 -43v-1700q0 -29 -18 -45t-43 -16t-43.5 16t-18.5 45v1639h-178v-1639q0 -29 -18.5 -45t-43 -16t-43 16t-18.5 45v744h-2q-211 0 -360.5 148.5t-149.5 359z" />
<glyph unicode="&#xb7;" horiz-adv-x="368" d="M123 717v164q0 29 18.5 45t43 16t43 -16.5t18.5 -44.5v-164q0 -29 -18.5 -45.5t-43 -16.5t-43 16.5t-18.5 45.5z" />
<glyph unicode="&#xb8;" horiz-adv-x="813" d="M332 -346.5q0 20.5 14 36t37 15.5t40 17.5t17 40t-16 39t-41 16.5q-53 0 -53 43q0 17 8 41l43 112q16 41 49 41q25 0 41 -18.5t8 -38.5l-30 -92q41 -18 67.5 -58.5t26.5 -85.5q0 -66 -47 -112.5t-113 -46.5q-23 0 -37 15t-14 35.5z" />
<glyph unicode="&#xb9;" horiz-adv-x="1179" d="M184 61.5q0 24.5 16.5 43t45.5 18.5h344v1309l-271 -146q-14 -8 -30 -8q-25 0 -42.5 18.5t-17.5 42.5q0 35 33 54l338 188q33 16 55 16q57 0 58 -61v-1413h344q29 0 45 -18.5t16 -43t-16.5 -43t-44.5 -18.5h-811q-29 0 -45.5 18.5t-16.5 43z" />
<glyph unicode="&#xba;" d="M123 881v338q0 166 116.5 282.5t282.5 116.5t283 -117t117 -282v-338q0 -166 -117 -283t-283 -117t-282.5 117t-116.5 283zM130 305q-8 15 -8 30.5t8 31.5q15 31 54 30h676q39 0 54 -30q8 -15 8 -30.5t-8 -31.5q-15 -31 -54 -31h-676q-39 0 -54 31zM246 881 q0 -115 81 -196t195.5 -81t195.5 81t81 196v338q0 115 -81 195.5t-195.5 80.5t-195.5 -81t-81 -195v-338z" />
<glyph unicode="&#xbb;" horiz-adv-x="1081" d="M143 252q0 29 23 45l311 281l-311 280q-23 16 -23 45q0 25 18.5 44.5t45.5 19.5q18 0 41 -19l317 -272q57 -51 57.5 -98.5t-57.5 -98.5l-317 -272q-23 -18 -41 -19q-27 0 -45.5 19.5t-18.5 44.5zM500 252q0 29 22 45l314 281l-314 280q-23 16 -22 45q0 25 18.5 44.5 t44.5 19.5q18 0 41 -19l318 -272q57 -49 57 -98q0 -47 -57 -99l-318 -272q-23 -18 -41 -19q-27 0 -45 19.5t-18 44.5z" />
<glyph unicode="&#xbc;" horiz-adv-x="3747" d="M184 61.5q0 24.5 16.5 43t45.5 18.5h344v1309l-271 -146q-14 -8 -30 -8q-25 0 -42.5 18.5t-17.5 42.5q0 35 33 54l338 188q33 16 55 16q57 0 58 -61v-1413h344q29 0 45 -18.5t16 -43t-16.5 -43t-44.5 -18.5h-811q-29 0 -45.5 18.5t-16.5 43zM1282 45q0 16 12 35 l1059 1491q18 27 49 26q25 0 44.5 -18t19.5 -43q0 -16 -12 -35l-1059 -1491q-18 -27 -49 -26q-25 0 -44.5 18t-19.5 43zM2660 461q0 6 4 26l2 5q131 356 392 727q137 195 293 360q27 27 53 27q53 0 53 -70v-1008h137q29 0 45.5 -18t16.5 -43t-16.5 -43t-45.5 -18h-137v-345 q0 -29 -18.5 -45t-43 -16t-43 16.5t-18.5 44.5v345h-612q-27 0 -44.5 15t-17.5 40zM2812 528h522v846q-329 -389 -522 -846z" />
<glyph unicode="&#xbd;" horiz-adv-x="3745" d="M184 61.5q0 24.5 16.5 43t45.5 18.5h344v1309l-271 -146q-14 -8 -30 -8q-25 0 -42.5 18.5t-17.5 42.5q0 35 33 54l338 188q33 16 55 16q57 0 58 -61v-1413h344q29 0 45 -18.5t16 -43t-16.5 -43t-44.5 -18.5h-811q-29 0 -45.5 18.5t-16.5 43zM1282 45q0 16 12 35 l1059 1491q18 27 49 26q25 0 44.5 -18t19.5 -43q0 -16 -12 -35l-1059 -1491q-18 -27 -49 -26q-25 0 -44.5 18t-19.5 43zM2671 53q0 23 18 47l194 241l250 312l207 271q115 156 115 303q0 115 -86 191.5t-219 76.5q-70 0 -144.5 -42t-109.5 -77t-49 -51v-2q-18 -25 -45 -25 t-46.5 19.5t-19.5 44.5q0 23 14 39q10 14 31 35q174 182 369 182q178 0 303 -109.5t125 -281.5q0 -96 -35 -187.5t-69.5 -142.5t-114.5 -149l-494 -625h684q29 0 45.5 -18.5t16.5 -43t-16.5 -43t-45.5 -18.5h-811q-67 0 -67 53z" />
<glyph unicode="&#xbe;" horiz-adv-x="3747" d="M143 1352q0 16 11 32q8 16 24 39q143 195 367 195q195 0 320.5 -117t125.5 -309q0 -254 -207 -375q104 -59 166 -159.5t62 -225.5q0 -193 -136.5 -320.5t-330.5 -127.5q-115 0 -225.5 65.5t-165.5 167.5q-8 16 -9 33q0 25 17.5 40t42.5 15q33 0 55 -31l16 -22 q106 -145 269 -146q145 0 244.5 93.5t99.5 232.5t-98.5 231.5t-245.5 92.5q-31 0 -47.5 18.5t-16.5 43t16.5 43t47.5 18.5q143 0 233 87t90 226t-88 221t-235 82q-84 0 -164 -47t-121 -121q-18 -33 -53 -33q-25 0 -44.5 16.5t-19.5 41.5zM1282 45q0 16 12 35l1059 1491 q18 27 49 26q25 0 44.5 -18t19.5 -43q0 -16 -12 -35l-1059 -1491q-18 -27 -49 -26q-25 0 -44.5 18t-19.5 43zM2660 461q0 6 4 26l2 5q131 356 392 727q137 195 293 360q27 27 53 27q53 0 53 -70v-1008h137q29 0 45.5 -18t16.5 -43t-16.5 -43t-45.5 -18h-137v-345 q0 -29 -18.5 -45t-43 -16t-43 16.5t-18.5 44.5v345h-612q-27 0 -44.5 15t-17.5 40zM2812 528h522v846q-329 -389 -522 -846z" />
<glyph unicode="&#xbf;" horiz-adv-x="1003" d="M123 -59q0 100 37 183t95 141.5t117.5 111.5t115 120.5t77.5 143.5q14 45 58 45q27 0 45 -16.5t18 -42.5q0 -12 -2 -19q-12 -45 -49 -106q-35 -61 -108 -135l-131 -128q-58 -54 -104 -134t-46 -164q0 -115 68.5 -181.5t195.5 -66.5q86 0 163 49t109 129q16 37 56 37 q25 0 44 -17.5t19 -42.5q0 -16 -4 -26q-8 -16 -23 -41q-59 -98 -154 -154.5t-210 -56.5q-176 0 -281.5 101.5t-105.5 269.5zM563 963v163q0 29 18.5 45.5t43 16.5t43 -16.5t18.5 -45.5v-163q0 -29 -18.5 -45.5t-43 -16.5t-43 16.5t-18.5 45.5z" />
<glyph unicode="&#xc0;" horiz-adv-x="1230" d="M61 59q0 8 5 21l491 1474q18 53 57 54q41 0 60 -54l491 -1474q4 -12 4 -21q0 -27 -19.5 -43t-45.5 -16q-41 0 -55 43l-154 461h-559l-154 -461q-14 -43 -57 -43q-25 0 -44.5 16t-19.5 43zM377 627h477l-240 714zM449 1962q0 23 15 39t36 16q14 0 32 -12l224 -178 q18 -16 18 -39t-15.5 -39t-35.5 -16q-14 0 -33 12l-223 178q-18 16 -18 39z" />
<glyph unicode="&#xc1;" horiz-adv-x="1230" d="M61 59q0 8 5 21l491 1474q18 53 57 54q41 0 60 -54l491 -1474q4 -12 4 -21q0 -27 -19.5 -43t-45.5 -16q-41 0 -55 43l-154 461h-559l-154 -461q-14 -43 -57 -43q-25 0 -44.5 16t-19.5 43zM377 627h477l-240 714zM449 1777.5q0 22.5 18 39.5l223 178q18 12 33 12 q20 0 35.5 -16.5t15.5 -39t-18 -38.5l-224 -178q-18 -12 -32 -13q-20 0 -35.5 16.5t-15.5 39z" />
<glyph unicode="&#xc2;" horiz-adv-x="1230" d="M61 59q0 8 5 21l491 1474q18 53 57 54q41 0 60 -54l491 -1474q4 -12 4 -21q0 -27 -19.5 -43t-45.5 -16q-41 0 -55 43l-154 461h-559l-154 -461q-14 -43 -57 -43q-25 0 -44.5 16t-19.5 43zM377 627h477l-240 714zM401 1785.5q0 20.5 17 35.5l139 141q31 31 57.5 31 t55.5 -31l141 -141q16 -14 16 -35t-15 -37t-35.5 -16t-35.5 16l-127 123l-127 -123q-14 -16 -34.5 -16t-36 16t-15.5 36.5z" />
<glyph unicode="&#xc3;" horiz-adv-x="1230" d="M61 59q0 8 5 21l491 1474q18 53 57 54q41 0 60 -54l491 -1474q4 -12 4 -21q0 -27 -19.5 -43t-45.5 -16q-41 0 -55 43l-154 461h-559l-154 -461q-14 -43 -57 -43q-25 0 -44.5 16t-19.5 43zM358 1784q0 41 55.5 89t118.5 48q57 0 106.5 -40t66.5 -40q43 0 72.5 43t53.5 43 q49 0 50 -51q0 -37 -56.5 -87t-119.5 -50q-51 0 -100.5 40t-72.5 40q-43 0 -72.5 -43t-53.5 -43q-18 0 -33 14t-15 37zM377 627h477l-240 714z" />
<glyph unicode="&#xc4;" horiz-adv-x="1230" d="M61 59q0 8 5 21l491 1474q18 53 57 54q41 0 60 -54l491 -1474q4 -12 4 -21q0 -27 -19.5 -43t-45.5 -16q-41 0 -55 43l-154 461h-559l-154 -461q-14 -43 -57 -43q-25 0 -44.5 16t-19.5 43zM377 627h477l-240 714zM420 1759v164q0 25 15.5 38t36 13t35.5 -13t15 -38v-164 q0 -25 -15 -38t-35.5 -13t-36 13t-15.5 38zM709 1759v164q0 25 15 38t35.5 13t36 -13t15.5 -38v-164q0 -25 -15.5 -38t-36 -13t-35.5 13t-15 38z" />
<glyph unicode="&#xc5;" horiz-adv-x="1230" d="M61 59q0 8 5 21l491 1474q18 53 57 54q41 0 60 -54l491 -1474q4 -12 4 -21q0 -27 -19.5 -43t-45.5 -16q-41 0 -55 43l-154 461h-559l-154 -461q-14 -43 -57 -43q-25 0 -44.5 16t-19.5 43zM377 627h477l-240 714zM449 1847.5q0 69.5 49 118.5t118.5 49t119.5 -49 t50 -118.5t-50 -120t-119.5 -50.5t-118.5 50.5t-49 120zM543 1847.5q0 -30.5 21.5 -53t52 -22.5t53 22.5t22.5 53t-22.5 52t-53 21.5t-52 -21.5t-21.5 -52z" />
<glyph unicode="&#xc6;" horiz-adv-x="1957" d="M0 61q0 16 12 35l973 1458q29 43 96 43h734q29 0 45 -18t16 -43t-16.5 -43t-44.5 -18h-707v-578h645q29 0 45.5 -18.5t16.5 -43t-16.5 -43t-45.5 -18.5h-645v-651h707q29 0 45 -18.5t16 -43t-16.5 -43t-44.5 -18.5h-768q-25 0 -43.5 16.5t-18.5 44.5v443h-553l-319 -477 q-18 -27 -50 -27q-25 0 -44 18t-19 43zM514 627h471v706z" />
<glyph unicode="&#xc7;" horiz-adv-x="1224" d="M123 508v582q0 217 155.5 372.5t372.5 155.5q123 0 253 -52.5t200 -142.5q14 -20 14 -39q0 -27 -19.5 -45t-43.5 -18q-27 0 -45 25l-21 20q-135 129 -338 129q-168 0 -286.5 -119t-118.5 -286v-582q0 -168 118.5 -287t286.5 -119q96 0 197.5 40t161.5 110q16 23 45 22 q27 0 47 -18t20 -43q0 -20 -18 -39q-10 -12 -31 -33q-172 -162 -422 -161h-4l-24 -74q41 -18 67.5 -58.5t26.5 -85.5q0 -66 -47 -112.5t-113 -46.5q-23 0 -37 15t-14 35.5t14.5 36t37 15.5t39.5 17.5t17 40t-16 39t-41 16.5q-35 0 -46 23.5t1 60.5l35 88q-182 37 -303 182.5 t-121 335.5z" />
<glyph unicode="&#xc8;" horiz-adv-x="1136" d="M164 61v1475q0 25 18.5 43t42.5 18h768q29 0 45.5 -18t16.5 -43t-16.5 -43t-45.5 -18h-706v-578h645q29 0 45 -18.5t16 -43t-16 -43t-45 -18.5h-645v-651h706q29 0 45.5 -18.5t16.5 -43t-16.5 -43t-45.5 -18.5h-768q-25 0 -43 18t-18 43zM428 1962q0 23 15.5 39t35.5 16 q14 0 33 -12l223 -178q18 -16 18.5 -39t-15 -39t-36.5 -16q-14 0 -32 12l-224 178q-18 16 -18 39z" />
<glyph unicode="&#xc9;" horiz-adv-x="1157" d="M164 61v1475q0 25 18.5 43t42.5 18h768q29 0 45.5 -18t16.5 -43t-16.5 -43t-45.5 -18h-706v-578h645q29 0 45 -18.5t16 -43t-16 -43t-45 -18.5h-645v-651h706q29 0 45.5 -18.5t16.5 -43t-16.5 -43t-45.5 -18.5h-768q-25 0 -43 18t-18 43zM483 1777.5q0 22.5 19 39.5 l223 178q18 12 33 12q20 0 35.5 -16.5t15.5 -39t-18 -38.5l-224 -178q-18 -12 -32 -13q-20 0 -36 16.5t-16 39z" />
<glyph unicode="&#xca;" horiz-adv-x="1157" d="M164 61v1475q0 25 18.5 43t42.5 18h768q29 0 45.5 -18t16.5 -43t-16.5 -43t-45.5 -18h-706v-578h645q29 0 45 -18.5t16 -43t-16 -43t-45 -18.5h-645v-651h706q29 0 45.5 -18.5t16.5 -43t-16.5 -43t-45.5 -18.5h-768q-25 0 -43 18t-18 43zM397 1785.5q0 20.5 17 37.5 l141 141q31 31 55 31q27 0 58 -31l141 -141q16 -16 16 -37t-16 -36t-37 -15q-18 0 -35 14l-125 123l-127 -123q-16 -14 -34 -14q-20 0 -37 15t-17 35.5z" />
<glyph unicode="&#xcb;" horiz-adv-x="1136" d="M164 61v1475q0 25 18.5 43t42.5 18h768q29 0 45.5 -18t16.5 -43t-16.5 -43t-45.5 -18h-706v-578h645q29 0 45 -18.5t16 -43t-16 -43t-45 -18.5h-645v-651h706q29 0 45.5 -18.5t16.5 -43t-16.5 -43t-45.5 -18.5h-768q-25 0 -43 18t-18 43zM432 1759v164q0 25 15.5 38 t36 13t36 -13t15.5 -38v-164q0 -25 -15.5 -38t-36 -13t-36 13t-15.5 38zM721 1759v164q0 25 15.5 38t36 13t35.5 -13t15 -38v-164q0 -25 -15 -38t-35.5 -13t-36 13t-15.5 38z" />
<glyph unicode="&#xcc;" horiz-adv-x="942" d="M82 61.5q0 24.5 16.5 43t44.5 18.5h267v1352h-267q-29 0 -45 18t-16 43t16.5 43t44.5 18h656q29 0 45 -18t16 -43t-16.5 -43t-44.5 -18h-267v-1352h267q29 0 45 -18.5t16 -43t-16.5 -43t-44.5 -18.5h-656q-29 0 -45 18.5t-16 43zM285 1962q0 23 15 39t36 16q14 0 33 -12 l223 -178q18 -16 18 -39t-15 -39t-36 -16q-14 0 -33 12l-223 178q-18 16 -18 39z" />
<glyph unicode="&#xcd;" horiz-adv-x="942" d="M82 61.5q0 24.5 16.5 43t44.5 18.5h267v1352h-267q-29 0 -45 18t-16 43t16.5 43t44.5 18h656q29 0 45 -18t16 -43t-16.5 -43t-44.5 -18h-267v-1352h267q29 0 45 -18.5t16 -43t-16.5 -43t-44.5 -18.5h-656q-29 0 -45 18.5t-16 43zM309 1777.5q0 22.5 19 39.5l223 178 q18 12 33 12q20 0 35.5 -16.5t15.5 -39t-19 -38.5l-223 -178q-18 -12 -33 -13q-20 0 -35.5 16.5t-15.5 39z" />
<glyph unicode="&#xce;" horiz-adv-x="942" d="M82 61.5q0 24.5 16.5 43t44.5 18.5h267v1352h-267q-29 0 -45 18t-16 43t16.5 43t44.5 18h656q29 0 45 -18t16 -43t-16.5 -43t-44.5 -18h-267v-1352h267q29 0 45 -18.5t16 -43t-16.5 -43t-44.5 -18.5h-656q-29 0 -45 18.5t-16 43zM256 1785.5q0 20.5 16 37.5l142 141 q31 31 55 31q27 0 57 -31l142 -141q16 -16 16 -37t-16.5 -36t-36.5 -15q-18 0 -35 14l-125 123l-127 -123q-16 -14 -35 -14q-20 0 -36.5 15t-16.5 35.5z" />
<glyph unicode="&#xcf;" horiz-adv-x="942" d="M82 61.5q0 24.5 16.5 43t44.5 18.5h267v1352h-267q-29 0 -45 18t-16 43t16.5 43t44.5 18h656q29 0 45 -18t16 -43t-16.5 -43t-44.5 -18h-267v-1352h267q29 0 45 -18.5t16 -43t-16.5 -43t-44.5 -18.5h-656q-29 0 -45 18.5t-16 43zM276 1759v164q0 25 15.5 38t36 13t36 -13 t15.5 -38v-164q0 -25 -15.5 -38t-36 -13t-36 13t-15.5 38zM565 1759v164q0 25 15.5 38t36 13t36 -13t15.5 -38v-164q0 -25 -15.5 -38t-36 -13t-36 13t-15.5 38z" />
<glyph unicode="&#xd0;" horiz-adv-x="1312" d="M0 860.5q0 24.5 16.5 43t44.5 18.5h103v614q0 25 18.5 43t42.5 18h426q217 0 373 -155.5t156 -372.5v-541q0 -217 -156 -372.5t-373 -155.5h-426q-25 0 -43 18.5t-18 42.5v738h-103q-29 0 -45 18.5t-16 43zM287 123h364q168 0 287 118.5t119 286.5v541q0 168 -119 287 t-287 119h-364v-553h153q29 0 45.5 -18.5t16.5 -43t-16.5 -43t-45.5 -18.5h-153v-676z" />
<glyph unicode="&#xd1;" horiz-adv-x="1343" d="M164 61v1475q0 33 16.5 52.5t38.5 19.5q35 0 60 -39l778 -1288v1255q0 29 18.5 45t43 16t43 -16t18.5 -45v-1475q0 -33 -16.5 -52t-39.5 -19q-35 0 -59 39l-778 1288v-1256q0 -29 -18.5 -45t-43 -16t-43 16t-18.5 45zM428 1784q0 41 55.5 89t118.5 48q57 0 106.5 -40 t65.5 -40q43 0 73 43t54 43q49 0 49 -51q0 -37 -56 -87t-120 -50q-51 0 -100 40t-72 40q-43 0 -72.5 -43t-54.5 -43q-18 0 -32.5 14t-14.5 37z" />
<glyph unicode="&#xd2;" horiz-adv-x="1302" d="M123 508v582q0 217 155.5 372.5t372.5 155.5t373 -155.5t156 -372.5v-582q0 -217 -156 -372.5t-373 -155.5t-372.5 155.5t-155.5 372.5zM246 508q0 -168 118.5 -287t286.5 -119t287 119t119 287v582q0 168 -119 286.5t-287 118.5t-286.5 -119t-118.5 -286v-582zM489 1962 q0 23 15.5 39t36.5 16q14 0 32 -12l224 -178q18 -16 18 -39t-15.5 -39t-35.5 -16q-14 0 -33 12l-223 178q-19 16 -19 39z" />
<glyph unicode="&#xd3;" horiz-adv-x="1302" d="M123 508v582q0 217 155.5 372.5t372.5 155.5t373 -155.5t156 -372.5v-582q0 -217 -156 -372.5t-373 -155.5t-372.5 155.5t-155.5 372.5zM246 508q0 -168 118.5 -287t286.5 -119t287 119t119 287v582q0 168 -119 286.5t-287 118.5t-286.5 -119t-118.5 -286v-582z M483 1777.5q0 22.5 19 39.5l223 178q18 12 33 12q20 0 35.5 -16.5t15.5 -39t-18 -38.5l-224 -178q-18 -12 -32 -13q-20 0 -36 16.5t-16 39z" />
<glyph unicode="&#xd4;" horiz-adv-x="1302" d="M123 508v582q0 217 155.5 372.5t372.5 155.5t373 -155.5t156 -372.5v-582q0 -217 -156 -372.5t-373 -155.5t-372.5 155.5t-155.5 372.5zM246 508q0 -168 118.5 -287t286.5 -119t287 119t119 287v582q0 168 -119 286.5t-287 118.5t-286.5 -119t-118.5 -286v-582z M442 1785.5q0 20.5 17 37.5l141 141q31 31 55 31q27 0 58 -31l141 -141q16 -16 16 -37t-16 -36t-37 -15q-18 0 -35 14l-125 123l-127 -123q-16 -14 -34 -14q-20 0 -37 15t-17 35.5z" />
<glyph unicode="&#xd5;" horiz-adv-x="1302" d="M123 508v582q0 217 155.5 372.5t372.5 155.5t373 -155.5t156 -372.5v-582q0 -217 -156 -372.5t-373 -155.5t-372.5 155.5t-155.5 372.5zM246 508q0 -168 118.5 -287t286.5 -119t287 119t119 287v582q0 168 -119 286.5t-287 118.5t-286.5 -119t-118.5 -286v-582zM387 1784 q0 41 55.5 89t118.5 48q57 0 106.5 -40t65.5 -40q43 0 73 43t54 43q49 0 49 -51q0 -37 -56 -87t-120 -50q-51 0 -100 40t-72 40q-43 0 -72.5 -43t-54.5 -43q-18 0 -32.5 14t-14.5 37z" />
<glyph unicode="&#xd6;" horiz-adv-x="1302" d="M123 508v582q0 217 155.5 372.5t372.5 155.5t373 -155.5t156 -372.5v-582q0 -217 -156 -372.5t-373 -155.5t-372.5 155.5t-155.5 372.5zM246 508q0 -168 118.5 -287t286.5 -119t287 119t119 287v582q0 168 -119 286.5t-287 118.5t-286.5 -119t-118.5 -286v-582zM422 1759 v164q0 25 15.5 38t36 13t35.5 -13t15 -38v-164q0 -25 -15 -38t-35.5 -13t-36 13t-15.5 38zM711 1759v164q0 25 15 38t35.5 13t36 -13t15.5 -38v-164q0 -25 -15.5 -38t-36 -13t-35.5 13t-15 38z" />
<glyph unicode="&#xd7;" horiz-adv-x="1269" d="M82 268q0 23 18 41l451 490l-451 489q-18 18 -18 41q0 25 19.5 44.5t44 19.5t44.5 -21l445 -483l444 483q20 20 45 20.5t44.5 -19t19.5 -44.5q0 -23 -19 -41l-450 -489l450 -490q18 -18 19 -41q0 -25 -19.5 -44t-44 -19t-45.5 20l-444 484l-445 -484q-20 -20 -44.5 -20 t-44 19t-19.5 44z" />
<glyph unicode="&#xd8;" horiz-adv-x="1304" d="M123 39q0 14 10 35l84 135q-92 131 -92 299v582q0 219 154.5 373.5t373.5 154.5q197 0 351 -133l63 104q16 29 51 29q25 0 44.5 -17.5t19.5 -41.5q0 -18 -11 -35l-84 -135q94 -133 95 -299v-582q0 -217 -155 -372.5t-374 -155.5q-199 0 -352 133l-63 -105 q-16 -29 -52 -28q-25 0 -44 17t-19 42zM248 508q0 -98 41 -180l649 1050q-121 117 -285 117q-168 0 -286.5 -119t-118.5 -286v-582zM367 219q121 -117 286 -117q168 0 287 119t119 287v582q0 94 -43 180z" />
<glyph unicode="&#xd9;" horiz-adv-x="1343" d="M143 508v1028q0 29 18.5 45t43 16t43 -16t18.5 -45v-1028q0 -168 119 -287t287 -119t286.5 119t118.5 287v1028q0 29 18.5 45t43 16t43 -16t18.5 -45v-1028q0 -217 -155.5 -372.5t-372.5 -155.5t-373 155.5t-156 372.5zM510 1962q0 23 15.5 39t35.5 16q14 0 33 -12 l223 -178q18 -16 18.5 -39t-15 -39t-36.5 -16q-14 0 -32 12l-224 178q-18 16 -18 39z" />
<glyph unicode="&#xda;" horiz-adv-x="1343" d="M143 508v1028q0 29 18.5 45t43 16t43 -16t18.5 -45v-1028q0 -168 119 -287t287 -119t286.5 119t118.5 287v1028q0 29 18.5 45t43 16t43 -16t18.5 -45v-1028q0 -217 -155.5 -372.5t-372.5 -155.5t-373 155.5t-156 372.5zM524 1777.5q0 22.5 19 39.5l223 178q18 12 33 12 q20 0 35.5 -16.5t15.5 -39t-19 -38.5l-223 -178q-18 -12 -33 -13q-20 0 -35.5 16.5t-15.5 39z" />
<glyph unicode="&#xdb;" horiz-adv-x="1343" d="M143 508v1028q0 29 18.5 45t43 16t43 -16t18.5 -45v-1028q0 -168 119 -287t287 -119t286.5 119t118.5 287v1028q0 29 18.5 45t43 16t43 -16t18.5 -45v-1028q0 -217 -155.5 -372.5t-372.5 -155.5t-373 155.5t-156 372.5zM453 1785.5q0 20.5 16 37.5l141 141q31 31 56 31 q27 0 57 -31l141 -141q16 -16 16.5 -37t-16 -36t-37.5 -15q-18 0 -34 14l-125 123l-127 -123q-16 -14 -35 -14q-20 0 -36.5 15t-16.5 35.5z" />
<glyph unicode="&#xdc;" horiz-adv-x="1343" d="M143 508v1028q0 29 18.5 45t43 16t43 -16t18.5 -45v-1028q0 -168 119 -287t287 -119t286.5 119t118.5 287v1028q0 29 18.5 45t43 16t43 -16t18.5 -45v-1028q0 -217 -155.5 -372.5t-372.5 -155.5t-373 155.5t-156 372.5zM473 1759v164q0 25 15.5 38t36 13t35.5 -13t15 -38 v-164q0 -25 -15 -38t-35.5 -13t-36 13t-15.5 38zM762 1759v164q0 25 15.5 38t36 13t35.5 -13t15 -38v-164q0 -25 -15 -38t-35.5 -13t-36 13t-15.5 38z" />
<glyph unicode="&#xdd;" horiz-adv-x="1189" d="M41 1538q0 25 19.5 42t43.5 17q35 0 52 -30l438 -733l440 733q16 31 51 30q25 0 44.5 -17t19.5 -42q0 -20 -10 -33l-484 -809v-635q0 -29 -18.5 -45t-43 -16t-43 16.5t-18.5 44.5v635l-481 809q-10 13 -10 33zM461 1765.5q0 20.5 20 38.5l224 178q16 12 32 13 q20 0 35.5 -16.5t15.5 -37t-20 -38.5l-223 -179q-16 -12 -33 -12q-20 0 -35.5 16.5t-15.5 37z" />
<glyph unicode="&#xde;" horiz-adv-x="1202" d="M164 61v1475q0 29 18.5 45t43 16t43 -16t18.5 -45v-184h303q211 0 360.5 -148.5t149.5 -359.5t-149.5 -360.5t-360.5 -149.5h-303v-273q0 -29 -18.5 -45t-43 -16t-43 16t-18.5 45zM287 457h303q160 0 272.5 112.5t112.5 274.5l2 -2q0 162 -113.5 274.5t-273.5 112.5h-303 v-772z" />
<glyph unicode="&#xdf;" horiz-adv-x="1196" d="M41 976.5q0 24.5 16.5 43t44.5 18.5h84v146q0 195 115 314.5t305 119.5q195 0 321 -117t126 -309q0 -254 -207 -375q104 -59 165.5 -159.5t61.5 -225.5q0 -193 -136 -320.5t-331 -127.5q-29 0 -45 18t-16 43t16.5 43.5t44.5 18.5q145 0 244.5 93t99.5 232t-98 231.5 t-246 92.5q-31 0 -47 18.5t-16 43t16 43t47 18.5q143 0 233.5 87t90.5 226t-88 221t-236 82q-135 0 -216 -83t-81 -228v-1139q0 -29 -18.5 -45t-43 -16t-43 16t-18.5 45v870h-84q-29 0 -45 18.5t-16 43z" />
<glyph unicode="&#xe0;" horiz-adv-x="968" d="M102 309q0 143 100.5 228.5t258.5 117.5l262 56v94q0 106 -61.5 167.5t-182.5 61.5q-66 0 -114 -19.5t-68.5 -42t-40.5 -42t-39 -19.5q-25 0 -44 17.5t-19 42.5q0 27 28 59q100 127 297 127q170 0 268.5 -97t98.5 -255v-473q0 -154 -108.5 -253t-262.5 -99 q-156 0 -264.5 87.5t-108.5 241.5zM225 311q0 -94 67.5 -151.5t180.5 -57.5q109 0 179.5 64.5t70.5 165.5v254l-264 -60q-109 -25 -171.5 -81t-62.5 -134zM291 1480.5q0 22.5 15.5 39t35.5 16.5q14 0 33 -12l223 -178q18 -16 18 -39t-15 -39.5t-36 -16.5q-14 0 -33 13 l-223 178q-18 16 -18 38.5z" />
<glyph unicode="&#xe1;" horiz-adv-x="968" d="M102 309q0 143 100.5 228.5t258.5 117.5l262 56v94q0 106 -61.5 167.5t-182.5 61.5q-66 0 -114 -19.5t-68.5 -42t-40.5 -42t-39 -19.5q-25 0 -44 17.5t-19 42.5q0 27 28 59q100 127 297 127q170 0 268.5 -97t98.5 -255v-473q0 -154 -108.5 -253t-262.5 -99 q-156 0 -264.5 87.5t-108.5 241.5zM225 311q0 -94 67.5 -151.5t180.5 -57.5q109 0 179.5 64.5t70.5 165.5v254l-264 -60q-109 -25 -171.5 -81t-62.5 -134zM311 1306.5q0 22.5 19 39.5l223 178q18 12 33 12q20 0 35.5 -16.5t15.5 -39t-19 -38.5l-223 -178q-18 -12 -33 -13 q-20 0 -35.5 16.5t-15.5 39z" />
<glyph unicode="&#xe2;" horiz-adv-x="968" d="M102 309q0 143 100.5 228.5t258.5 117.5l262 56v94q0 106 -61.5 167.5t-182.5 61.5q-66 0 -114 -19.5t-68.5 -42t-40.5 -42t-39 -19.5q-25 0 -44 17.5t-19 42.5q0 27 28 59q100 127 297 127q170 0 268.5 -97t98.5 -255v-473q0 -154 -108.5 -253t-262.5 -99 q-156 0 -264.5 87.5t-108.5 241.5zM225 311q0 -94 67.5 -151.5t180.5 -57.5q109 0 179.5 64.5t70.5 165.5v254l-264 -60q-109 -25 -171.5 -81t-62.5 -134zM260 1323q0 20 16 37l142 141q31 31 55 31q27 0 57 -31l142 -141q16 -16 16 -36.5t-16.5 -36t-36.5 -15.5 q-18 0 -35 14l-125 123l-127 -123q-16 -14 -35 -14q-20 0 -36.5 15.5t-16.5 35.5z" />
<glyph unicode="&#xe3;" horiz-adv-x="968" d="M102 309q0 143 100.5 228.5t258.5 117.5l262 56v94q0 106 -61.5 167.5t-182.5 61.5q-66 0 -114 -19.5t-68.5 -42t-40.5 -42t-39 -19.5q-25 0 -44 17.5t-19 42.5q0 27 28 59q100 127 297 127q170 0 268.5 -97t98.5 -255v-473q0 -154 -108.5 -253t-262.5 -99 q-156 0 -264.5 87.5t-108.5 241.5zM225 1321q0 41 55.5 89t118.5 48q57 0 106.5 -40t65.5 -40q43 0 73 43t54 43q49 0 50 -51q0 -37 -56.5 -87t-120.5 -50q-51 0 -100 40t-72 40q-43 0 -72.5 -43t-54.5 -43q-18 0 -32.5 14t-14.5 37zM225 311q0 -94 67.5 -151.5t180.5 -57.5 q109 0 179.5 64.5t70.5 165.5v254l-264 -60q-109 -25 -171.5 -81t-62.5 -134z" />
<glyph unicode="&#xe4;" horiz-adv-x="968" d="M102 309q0 143 100.5 228.5t258.5 117.5l262 56v94q0 106 -61.5 167.5t-182.5 61.5q-66 0 -114 -19.5t-68.5 -42t-40.5 -42t-39 -19.5q-25 0 -44 17.5t-19 42.5q0 27 28 59q100 127 297 127q170 0 268.5 -97t98.5 -255v-473q0 -154 -108.5 -253t-262.5 -99 q-156 0 -264.5 87.5t-108.5 241.5zM225 311q0 -94 67.5 -151.5t180.5 -57.5q109 0 179.5 64.5t70.5 165.5v254l-264 -60q-109 -25 -171.5 -81t-62.5 -134zM274 1298v164q0 25 15.5 38t36 13t36 -13t15.5 -38v-164q0 -25 -15.5 -38t-36 -13t-36 13t-15.5 38zM563 1298v164 q0 25 15.5 38t36 13t36 -13t15.5 -38v-164q0 -25 -15.5 -38t-36 -13t-36 13t-15.5 38z" />
<glyph unicode="&#xe5;" horiz-adv-x="968" d="M102 309q0 143 100.5 228.5t258.5 117.5l262 56v94q0 106 -61.5 167.5t-182.5 61.5q-66 0 -114 -19.5t-68.5 -42t-40.5 -42t-39 -19.5q-25 0 -44 17.5t-19 42.5q0 27 28 59q100 127 297 127q170 0 268.5 -97t98.5 -255v-473q0 -154 -108.5 -253t-262.5 -99 q-156 0 -264.5 87.5t-108.5 241.5zM225 311q0 -94 67.5 -151.5t180.5 -57.5q109 0 179.5 64.5t70.5 165.5v254l-264 -60q-109 -25 -171.5 -81t-62.5 -134zM295 1423.5q0 69.5 49 118.5t118.5 49t120 -49t50.5 -118.5t-50.5 -120t-120 -50.5t-118.5 50.5t-49 120zM389 1423.5 q0 -30.5 21.5 -53t52.5 -22.5t53.5 22.5t22.5 53t-22.5 52t-53.5 21.5t-52.5 -21.5t-21.5 -52z" />
<glyph unicode="&#xe6;" horiz-adv-x="1624" d="M102 309q0 143 100.5 228.5t258.5 117.5l262 56v94q0 106 -61.5 167.5t-182.5 61.5q-66 0 -114 -19.5t-68.5 -42t-40.5 -42t-39 -19.5q-25 0 -44 17.5t-19 42.5q0 27 28 59q100 127 297 127q225 0 320 -164q123 164 323 164q166 0 283 -116.5t117 -282.5v-144 q0 -25 -18.5 -43t-43.5 -18h-614v-174q0 -111 89 -194t208 -83q66 0 132 25t99 72q20 27 49 26q25 0 45.5 -17.5t20.5 -41.5q0 -18 -12 -37l-23 -27q-117 -123 -311 -122q-100 0 -192.5 47t-151.5 127q-49 -82 -135 -128t-189 -46q-156 0 -264.5 87.5t-108.5 241.5zM225 311 q0 -94 67.5 -151.5t180.5 -57.5q109 0 179.5 64.5t70.5 163.5v256l-264 -60q-109 -25 -171.5 -81t-62.5 -134zM846 676h553v82q0 115 -81 195.5t-195.5 80.5t-195.5 -81t-81 -195v-82z" />
<glyph unicode="&#xe7;" horiz-adv-x="937" d="M123 332v473q0 158 107.5 255t279.5 97q92 0 189.5 -40t144.5 -109q10 -16 10 -35q0 -25 -19.5 -43.5t-43.5 -18.5q-31 0 -50 27q-2 4 -10 12q-78 84 -221 84q-125 0 -194.5 -64.5t-69.5 -164.5v-473q0 -100 69.5 -165t194.5 -65q66 0 132.5 25t98.5 72q20 27 50 26 q25 0 45 -17.5t20 -41.5q0 -18 -12 -37l-23 -27q-117 -123 -311 -122h-6l-25 -74q41 -18 67.5 -58.5t26.5 -85.5q0 -66 -47 -112.5t-112 -46.5q-23 0 -37.5 15t-14.5 35.5t14.5 36t37 15.5t40 17.5t17.5 40t-16.5 39t-40.5 16.5q-35 0 -46.5 23.5t1.5 60.5l34 90 q-129 29 -204.5 119t-75.5 221z" />
<glyph unicode="&#xe8;" horiz-adv-x="1024" d="M123 379v379q0 166 116.5 282.5t282.5 116.5t283 -116.5t117 -282.5v-144q0 -25 -18.5 -43t-43.5 -18h-614v-174q0 -111 89 -194t208 -83q66 0 132 25t99 72q20 27 49 26q25 0 45.5 -17.5t20.5 -41.5q0 -18 -12 -37l-23 -27q-117 -123 -311 -122q-166 0 -293 116.5 t-127 282.5zM246 676h553v82q0 115 -81 195.5t-195.5 80.5t-195.5 -81t-81 -195v-82zM352 1480.5q0 22.5 15.5 39t35.5 16.5q14 0 33 -12l223 -178q18 -16 18.5 -39t-15 -39.5t-35.5 -16.5q-14 0 -33 13l-223 178q-19 16 -19 38.5z" />
<glyph unicode="&#xe9;" horiz-adv-x="1024" d="M123 379v379q0 166 116.5 282.5t282.5 116.5t283 -116.5t117 -282.5v-144q0 -25 -18.5 -43t-43.5 -18h-614v-174q0 -111 89 -194t208 -83q66 0 132 25t99 72q20 27 49 26q25 0 45.5 -17.5t20.5 -41.5q0 -18 -12 -37l-23 -27q-117 -123 -311 -122q-166 0 -293 116.5 t-127 282.5zM246 676h553v82q0 115 -81 195.5t-195.5 80.5t-195.5 -81t-81 -195v-82zM373 1306.5q0 22.5 18 39.5l223 178q18 12 33 12q20 0 35.5 -16.5t15.5 -39t-18 -38.5l-223 -178q-18 -12 -33 -13q-20 0 -35.5 16.5t-15.5 39z" />
<glyph unicode="&#xea;" horiz-adv-x="1024" d="M123 379v379q0 166 116.5 282.5t282.5 116.5t283 -116.5t117 -282.5v-144q0 -25 -18.5 -43t-43.5 -18h-614v-174q0 -111 89 -194t208 -83q66 0 132 25t99 72q20 27 49 26q25 0 45.5 -17.5t20.5 -41.5q0 -18 -12 -37l-23 -27q-117 -123 -311 -122q-166 0 -293 116.5 t-127 282.5zM246 676h553v82q0 115 -81 195.5t-195.5 80.5t-195.5 -81t-81 -195v-82zM301 1323q0 20 16 37l142 141q31 31 55 31q27 0 57 -31l142 -141q16 -16 16 -36.5t-16.5 -36t-36.5 -15.5q-18 0 -35 14l-125 123l-127 -123q-16 -14 -35 -14q-20 0 -36.5 15.5 t-16.5 35.5z" />
<glyph unicode="&#xeb;" horiz-adv-x="1024" d="M123 379v379q0 166 116.5 282.5t282.5 116.5t283 -116.5t117 -282.5v-144q0 -25 -18.5 -43t-43.5 -18h-614v-174q0 -111 89 -194t208 -83q66 0 132 25t99 72q20 27 49 26q25 0 45.5 -17.5t20.5 -41.5q0 -18 -12 -37l-23 -27q-117 -123 -311 -122q-166 0 -293 116.5 t-127 282.5zM246 676h553v82q0 115 -81 195.5t-195.5 80.5t-195.5 -81t-81 -195v-82zM315 1298v164q0 25 15.5 38t36 13t36 -13t15.5 -38v-164q0 -25 -15.5 -38t-36 -13t-36 13t-15.5 38zM604 1298v164q0 25 15.5 38t36 13t36 -13t15.5 -38v-164q0 -25 -15.5 -38t-36 -13 t-36 13t-15.5 38z" />
<glyph unicode="&#xec;" horiz-adv-x="409" d="M41 1481q0 23 15.5 39t35.5 16q18 0 33 -12l223 -178q20 -18 21 -39q0 -23 -15.5 -39.5t-36.5 -16.5q-18 0 -32 13l-224 178q-20 19 -20 39zM139 61v1014q0 29 18.5 45.5t43 16.5t43 -16.5t18.5 -45.5v-1014q0 -29 -18.5 -45t-43 -16t-43 16t-18.5 45z" />
<glyph unicode="&#xed;" horiz-adv-x="409" d="M41 1307q0 20 20 39l224 178q14 12 32 12q20 0 36 -16.5t16 -38.5q0 -20 -21 -39l-223 -178q-14 -12 -33 -13q-20 0 -35.5 16.5t-15.5 39.5zM139 61v1014q0 29 18.5 45.5t43 16.5t43 -16.5t18.5 -45.5v-1014q0 -29 -18.5 -45t-43 -16t-43 16t-18.5 45z" />
<glyph unicode="&#xee;" horiz-adv-x="428" d="M0 1323q0 20 16 37l142 141q31 31 55 31q27 0 57 -31l142 -141q16 -20 16 -37q0 -20 -16.5 -35.5t-37 -15.5t-34.5 14l-127 123l-125 -123q-16 -14 -35 -14q-20 0 -36.5 15.5t-16.5 35.5zM150 61v1014q0 29 18 45.5t43 16.5t43 -16.5t18 -45.5v-1014q0 -29 -18 -45 t-43 -16t-43 16t-18 45z" />
<glyph unicode="&#xef;" horiz-adv-x="391" d="M0 1298v164q0 25 15.5 38t36 13t35.5 -13t15 -38v-164q0 -25 -15 -38t-35.5 -13t-36 13t-15.5 38zM129 61v1014q0 29 18.5 45.5t43 16.5t43 -16.5t18.5 -45.5v-1014q0 -29 -18.5 -45t-43 -16t-43 16t-18.5 45zM289 1298v164q0 25 15 38t35.5 13t36 -13t15.5 -38v-164 q0 -25 -15.5 -38t-36 -13t-35.5 13t-15 38z" />
<glyph unicode="&#xf0;" d="M123 379v379q0 166 116.5 282.5t282.5 116.5q129 0 232 -74q-51 162 -146 263l-69 -84q-23 -25 -45 -25q-27 0 -46.5 19.5t-19.5 43.5q0 18 16 39l70 84q-47 31 -106 54l-66 18q-53 8 -53 61q0 25 15 43.5t44 18.5h10q37 -4 93 -27q78 -27 143 -73l65 77q20 25 46 25 q27 0 46 -19.5t19 -44.5q0 -18 -16 -38l-66 -78q233 -240 234 -682v-379q0 -166 -117 -282.5t-283 -116.5t-282.5 116.5t-116.5 282.5zM246 379q0 -115 81 -196t195.5 -81t195.5 81t81 196v379q0 115 -81 195.5t-195.5 80.5t-195.5 -81t-81 -195v-379z" />
<glyph unicode="&#xf1;" d="M123 61v697q0 166 116.5 282.5t282.5 116.5t283 -116.5t117 -282.5v-697q0 -29 -18.5 -45t-43 -16t-43 16.5t-18.5 44.5v697q0 115 -81 195.5t-195.5 80.5t-195.5 -81t-81 -195v-697q0 -29 -18.5 -45t-43 -16t-43 16t-18.5 45zM252 1321q0 41 55 89t119 48 q57 0 106.5 -40t65.5 -40q43 0 72.5 43t54.5 43q49 0 49 -51q0 -37 -56 -87t-120 -50q-51 0 -100 40t-72 40q-43 0 -72.5 -43t-54.5 -43q-18 0 -32.5 14t-14.5 37z" />
<glyph unicode="&#xf2;" d="M123 379v379q0 166 116.5 282.5t282.5 116.5t283 -116.5t117 -282.5v-379q0 -166 -117 -282.5t-283 -116.5t-282.5 116.5t-116.5 282.5zM246 379q0 -115 81 -196t195.5 -81t195.5 81t81 196v379q0 115 -81 195.5t-195.5 80.5t-195.5 -81t-81 -195v-379zM352 1480.5 q0 22.5 15.5 39t35.5 16.5q14 0 33 -12l223 -178q18 -16 18.5 -39t-15 -39.5t-35.5 -16.5q-14 0 -33 13l-223 178q-19 16 -19 38.5z" />
<glyph unicode="&#xf3;" d="M123 379v379q0 166 116.5 282.5t282.5 116.5t283 -116.5t117 -282.5v-379q0 -166 -117 -282.5t-283 -116.5t-282.5 116.5t-116.5 282.5zM246 379q0 -115 81 -196t195.5 -81t195.5 81t81 196v379q0 115 -81 195.5t-195.5 80.5t-195.5 -81t-81 -195v-379zM352 1306.5 q0 22.5 19 39.5l223 178q18 12 33 12q20 0 35.5 -16.5t15.5 -39t-19 -38.5l-223 -178q-18 -12 -33 -13q-20 0 -35.5 16.5t-15.5 39z" />
<glyph unicode="&#xf4;" d="M123 379v379q0 166 116.5 282.5t282.5 116.5t283 -116.5t117 -282.5v-379q0 -166 -117 -282.5t-283 -116.5t-282.5 116.5t-116.5 282.5zM246 379q0 -115 81 -196t195.5 -81t195.5 81t81 196v379q0 115 -81 195.5t-195.5 80.5t-195.5 -81t-81 -195v-379zM305 1323 q0 20 17 37l141 141q31 31 55 31q27 0 57 -31l142 -141q16 -16 16 -36.5t-16.5 -36t-36.5 -15.5q-18 0 -35 14l-125 123l-127 -123q-16 -14 -35 -14q-20 0 -36.5 15.5t-16.5 35.5z" />
<glyph unicode="&#xf5;" d="M123 379v379q0 166 116.5 282.5t282.5 116.5t283 -116.5t117 -282.5v-379q0 -166 -117 -282.5t-283 -116.5t-282.5 116.5t-116.5 282.5zM246 379q0 -115 81 -196t195.5 -81t195.5 81t81 196v379q0 115 -81 195.5t-195.5 80.5t-195.5 -81t-81 -195v-379zM256 1321 q0 41 55.5 89t118.5 48q57 0 106.5 -40t65.5 -40q43 0 73 43t54 43q49 0 49 -51q0 -37 -56 -87t-120 -50q-51 0 -100 40t-72 40q-43 0 -72.5 -43t-54.5 -43q-18 0 -32.5 14t-14.5 37z" />
<glyph unicode="&#xf6;" d="M123 379v379q0 166 116.5 282.5t282.5 116.5t283 -116.5t117 -282.5v-379q0 -166 -117 -282.5t-283 -116.5t-282.5 116.5t-116.5 282.5zM246 379q0 -115 81 -196t195.5 -81t195.5 81t81 196v379q0 115 -81 195.5t-195.5 80.5t-195.5 -81t-81 -195v-379zM328 1298v164 q0 25 15 38t35.5 13t36 -13t15.5 -38v-164q0 -25 -15.5 -38t-36 -13t-35.5 13t-15 38zM616 1298v164q0 25 15.5 38t36 13t36 -13t15.5 -38v-164q0 -25 -15.5 -38t-36 -13t-36 13t-15.5 38z" />
<glyph unicode="&#xf7;" horiz-adv-x="1310" d="M102 804.5q0 24.5 16.5 43t45.5 18.5h983q29 0 45 -18.5t16 -43t-16 -43t-45 -18.5h-983q-29 0 -45.5 18.5t-16.5 43zM594 369v163q0 29 18.5 45.5t43 16.5t43 -16.5t18.5 -45.5v-163q0 -29 -18.5 -45.5t-43 -16.5t-43 16.5t-18.5 45.5zM594 1077v164q0 29 18.5 45.5 t43 16.5t43 -16.5t18.5 -45.5v-164q0 -29 -18.5 -45t-43 -16t-43 16t-18.5 45z" />
<glyph unicode="&#xf8;" horiz-adv-x="1046" d="M123 39q0 14 10 35l55 86q-63 98 -63 219v379q0 166 116.5 282.5t282.5 116.5q139 0 248 -86l37 57q20 29 51 29q25 0 44.5 -17.5t19.5 -41.5q0 -14 -11 -35l-55 -86q66 -102 66 -219v-379q0 -166 -118 -282.5t-282 -116.5q-141 0 -250 86l-36 -58q-20 -29 -52 -28 q-25 0 -44 17t-19 42zM248 379q0 -47 16 -100l441 688q-78 68 -181 67q-115 0 -195.5 -81t-80.5 -195v-379zM342 170q78 -68 182 -68q115 0 196 81t81 196v379q0 41 -19 100z" />
<glyph unicode="&#xf9;" d="M123 379v696q0 29 18.5 45.5t43 16.5t43 -16.5t18.5 -45.5v-696q0 -115 81 -196t195.5 -81t195.5 81t81 196v696q0 29 18.5 45.5t43 16.5t43 -16.5t18.5 -45.5v-696q0 -166 -117 -282.5t-283 -116.5t-282.5 116.5t-116.5 282.5zM342 1480.5q0 22.5 15.5 39t35.5 16.5 q14 0 33 -12l223 -178q18 -16 18.5 -39t-15 -39.5t-36.5 -16.5q-14 0 -32 13l-224 178q-18 16 -18 38.5z" />
<glyph unicode="&#xfa;" d="M123 379v696q0 29 18.5 45.5t43 16.5t43 -16.5t18.5 -45.5v-696q0 -115 81 -196t195.5 -81t195.5 81t81 196v696q0 29 18.5 45.5t43 16.5t43 -16.5t18.5 -45.5v-696q0 -166 -117 -282.5t-283 -116.5t-282.5 116.5t-116.5 282.5zM373 1306.5q0 22.5 18 39.5l223 178 q18 12 33 12q20 0 35.5 -16.5t15.5 -39t-18 -38.5l-223 -178q-18 -12 -33 -13q-20 0 -35.5 16.5t-15.5 39z" />
<glyph unicode="&#xfb;" d="M123 379v696q0 29 18.5 45.5t43 16.5t43 -16.5t18.5 -45.5v-696q0 -115 81 -196t195.5 -81t195.5 81t81 196v696q0 29 18.5 45.5t43 16.5t43 -16.5t18.5 -45.5v-696q0 -166 -117 -282.5t-283 -116.5t-282.5 116.5t-116.5 282.5zM307 1323q0 20 17 37l141 141q31 31 55 31 q27 0 58 -31l141 -141q16 -16 16 -36.5t-16.5 -36t-36.5 -15.5q-18 0 -35 14l-125 123l-127 -123q-16 -14 -35 -14q-20 0 -36.5 15.5t-16.5 35.5z" />
<glyph unicode="&#xfc;" d="M123 379v696q0 29 18.5 45.5t43 16.5t43 -16.5t18.5 -45.5v-696q0 -115 81 -196t195.5 -81t195.5 81t81 196v696q0 29 18.5 45.5t43 16.5t43 -16.5t18.5 -45.5v-696q0 -166 -117 -282.5t-283 -116.5t-282.5 116.5t-116.5 282.5zM330 1298v164q0 25 15 38t35.5 13t36 -13 t15.5 -38v-164q0 -25 -15.5 -38t-36 -13t-35.5 13t-15 38zM618 1298v164q0 25 15.5 38t36 13t36 -13t15.5 -38v-164q0 -25 -15.5 -38t-36 -13t-36 13t-15.5 38z" />
<glyph unicode="&#xfd;" horiz-adv-x="987" d="M61 1077q0 27 19.5 43.5t44.5 16.5q39 0 57 -41l305 -852l318 852q14 41 55 41q27 0 46.5 -16.5t19.5 -43.5q0 -10 -6 -22l-531 -1424q-14 -41 -55 -41q-25 0 -44.5 16.5t-19.5 43.5q0 6 4 22l146 394l-354 989q-5 16 -5 22zM352 1306.5q0 22.5 19 39.5l223 178 q18 12 33 12q20 0 35.5 -16.5t15.5 -39t-19 -38.5l-223 -178q-18 -12 -33 -13q-20 0 -35.5 16.5t-15.5 39z" />
<glyph unicode="&#xfe;" horiz-adv-x="1064" d="M143 -348v1884q0 29 18.5 45t43 16t43 -16t18.5 -45v-489q117 111 277 110q166 0 282.5 -116.5t116.5 -282.5v-379q0 -166 -116.5 -282.5t-282.5 -116.5q-160 0 -277 110v-438q0 -29 -18.5 -45.5t-43 -16.5t-43 16.5t-18.5 45.5zM266 379q0 -115 81 -196t195.5 -81 t195.5 81t81 196v379q0 115 -81 195.5t-195.5 80.5t-195.5 -81t-81 -195v-379z" />
<glyph unicode="&#xff;" horiz-adv-x="987" d="M61 1077q0 27 19.5 43.5t44.5 16.5q39 0 57 -41l305 -852l318 852q14 41 55 41q27 0 46.5 -16.5t19.5 -43.5q0 -10 -6 -22l-531 -1424q-14 -41 -55 -41q-25 0 -44.5 16.5t-19.5 43.5q0 6 4 22l146 394l-354 989q-5 16 -5 22zM305 1298v164q0 25 15.5 38t36 13t36 -13 t15.5 -38v-164q0 -25 -15.5 -38t-36 -13t-36 13t-15.5 38zM594 1298v164q0 25 15.5 38t36 13t35.5 -13t15 -38v-164q0 -25 -15 -38t-35.5 -13t-36 13t-15.5 38z" />
<glyph unicode="&#x152;" horiz-adv-x="2050" d="M123 508v582q0 217 155.5 372.5t372.5 155.5q248 0 406 -191v109q0 25 18.5 43t42.5 18h768q29 0 45.5 -18t16.5 -43t-16.5 -43t-45.5 -18h-706v-578h645q29 0 45 -18.5t16 -43t-16.5 -43t-44.5 -18.5h-645v-651h706q29 0 45.5 -18.5t16.5 -43t-16.5 -43t-45.5 -18.5 h-768q-25 0 -43 18.5t-18 42.5v109q-158 -190 -406 -190q-217 0 -372.5 155.5t-155.5 372.5zM246 508q0 -168 118.5 -287t286.5 -119t287 119t119 287v582q0 168 -119 286.5t-287 118.5t-286.5 -119t-118.5 -286v-582z" />
<glyph unicode="&#x153;" horiz-adv-x="1699" d="M123 379v379q0 166 116.5 282.5t282.5 116.5q104 0 193.5 -50t144.5 -136q55 86 144.5 136t193.5 50q166 0 282.5 -116.5t116.5 -282.5v-144q0 -25 -18 -43t-43 -18h-614v-174q0 -111 89 -194t208 -83q66 0 132 25t99 72q20 27 49 26q25 0 45.5 -17.5t20.5 -41.5 q0 -18 -13 -37l-22 -27q-117 -123 -311 -122q-104 0 -200.5 52t-156.5 138q-53 -88 -143 -139t-197 -51q-166 0 -282.5 116.5t-116.5 282.5zM246 379q0 -115 81 -196t195.5 -81t195.5 81t81 196v379q0 115 -81 195.5t-195.5 80.5t-195.5 -81t-81 -195v-379zM922 676h553v82 q0 115 -81 195.5t-196 80.5t-195.5 -81t-80.5 -195v-82z" />
<glyph unicode="&#x178;" horiz-adv-x="1189" d="M41 1538q0 25 19.5 42t43.5 17q35 0 52 -30l438 -733l440 733q16 31 51 30q25 0 44.5 -17t19.5 -42q0 -20 -10 -33l-484 -809v-635q0 -29 -18.5 -45t-43 -16t-43 16.5t-18.5 44.5v635l-481 809q-10 13 -10 33zM403 1659v164q0 25 15.5 38t36.5 13q18 0 34.5 -13.5 t16.5 -37.5v-164q0 -25 -16.5 -38t-34.5 -13q-20 0 -36 13t-16 38zM692 1659v164q0 25 15.5 38t35.5 13q18 0 35 -13.5t17 -37.5v-164q0 -25 -16.5 -38t-35.5 -13q-20 0 -35.5 13t-15.5 38z" />
<glyph unicode="&#x2c6;" horiz-adv-x="825" d="M199 1323q0 20 16 37l141 141q31 31 56 31q27 0 57 -31l141 -141q16 -16 16.5 -36.5t-16 -36t-37.5 -15.5q-18 0 -34 14l-125 123l-127 -123q-16 -14 -35 -14q-20 0 -36.5 15.5t-16.5 35.5z" />
<glyph unicode="&#x2dc;" horiz-adv-x="888" d="M184 1321q0 41 55.5 89t118.5 48q57 0 106.5 -40t65.5 -40q43 0 73 43t54 43q49 0 50 -51q0 -37 -56.5 -87t-120.5 -50q-51 0 -100 40t-72 40q-43 0 -72.5 -43t-54.5 -43q-18 0 -32.5 14t-14.5 37z" />
<glyph unicode="&#x2013;" horiz-adv-x="954" d="M102 796.5q0 24.5 16.5 43t45.5 18.5h627q29 0 45 -18.5t16 -43t-16.5 -43t-44.5 -18.5h-627q-29 0 -45.5 18.5t-16.5 43z" />
<glyph unicode="&#x2014;" horiz-adv-x="1581" d="M102 796.5q0 24.5 16.5 43t45.5 18.5h1253q29 0 45.5 -18.5t16.5 -43t-16.5 -43t-45.5 -18.5h-1253q-29 0 -45.5 18.5t-16.5 43z" />
<glyph unicode="&#x2018;" horiz-adv-x="450" d="M82 1126q0 125 56.5 256t152.5 203q18 12 37 12q25 0 43 -19t18 -44q0 -31 -24 -49l-23 -19q-137 -137 -137 -340q0 -29 -18.5 -45t-43 -16t-43 16t-18.5 45z" />
<glyph unicode="&#x2019;" horiz-adv-x="450" d="M61 1128q0 27 27 48q8 6 21 20q137 133 137 340q0 29 18.5 45t43 16t43 -16t18.5 -45q0 -125 -56.5 -257t-152.5 -202q-14 -12 -37 -12q-25 0 -43.5 19t-18.5 44z" />
<glyph unicode="&#x201a;" horiz-adv-x="430" d="M0 -182q0 27 27 47q8 6 20 20q137 133 137 340q0 29 18.5 45.5t43 16.5t43 -16.5t18.5 -45.5q0 -125 -56 -257t-153 -201q-14 -12 -37 -13q-25 0 -43 19.5t-18 44.5z" />
<glyph unicode="&#x201c;" horiz-adv-x="761" d="M82 1126q0 125 56.5 256t152.5 203q18 12 37 12q25 0 43 -19t18 -44q0 -31 -24 -49l-23 -19q-137 -137 -137 -340q0 -29 -18.5 -45t-43 -16t-43 16t-18.5 45zM393 1126q0 125 56.5 256t152.5 203q18 12 37 12q25 0 43 -19t18 -44q0 -29 -26 -49q-8 -6 -21 -19 q-137 -137 -137 -340q0 -29 -18.5 -45t-43 -16t-43 16t-18.5 45z" />
<glyph unicode="&#x201d;" horiz-adv-x="761" d="M61 1128q0 27 27 48q8 6 21 20q137 133 137 340q0 29 18.5 45t43 16t43 -16t18.5 -45q0 -125 -56.5 -257t-152.5 -202q-14 -12 -37 -12q-25 0 -43.5 19t-18.5 44zM373 1128q0 29 24 48q8 6 23 20q137 133 137 340q0 29 18.5 45t43 16t43 -16t18.5 -45q0 -125 -56.5 -257 t-152.5 -202q-14 -12 -37 -12q-25 0 -43 19t-18 44z" />
<glyph unicode="&#x201e;" horiz-adv-x="733" d="M0 -182q0 27 27 47q8 6 20 20q137 133 137 340q0 29 18.5 45.5t43 16.5t43 -16.5t18.5 -45.5q0 -125 -56 -257t-153 -201q-14 -12 -37 -13q-25 0 -43 19.5t-18 44.5zM303 -182q0 29 25 47q8 6 22 20q137 133 137 340q0 29 18.5 45.5t43 16.5t43 -16.5t18.5 -45.5 q0 -125 -56 -257t-153 -201q-14 -12 -36 -13q-25 0 -43.5 19.5t-18.5 44.5z" />
<glyph unicode="&#x2022;" horiz-adv-x="776" d="M123 748q0 111 78 188.5t186 77.5q111 0 188.5 -78t77.5 -186q0 -111 -77.5 -189t-186.5 -78q-111 0 -188.5 78t-77.5 187z" />
<glyph unicode="&#x2026;" horiz-adv-x="983" d="M123 61v164q0 29 18.5 45.5t43 16.5t43 -16.5t18.5 -45.5v-164q0 -29 -18.5 -45t-43 -16t-43 16t-18.5 45zM430 61v164q0 29 18.5 45.5t43 16.5t43 -16.5t18.5 -45.5v-164q0 -29 -18.5 -45t-43 -16t-43 16t-18.5 45zM737 61v164q0 29 18.5 45.5t43 16.5t43 -16.5 t18.5 -45.5v-164q0 -29 -18.5 -45t-43 -16t-43 16t-18.5 45z" />
<glyph unicode="&#x2039;" horiz-adv-x="724" d="M102 578q0 49 60 98l317 272q18 18 41 19q25 0 43.5 -19.5t18.5 -44.5q0 -27 -21 -45l-313 -280l313 -281q20 -18 21 -45q0 -25 -18.5 -44.5t-43.5 -19.5q-23 0 -41 19l-317 272q-60 52 -60 99z" />
<glyph unicode="&#x203a;" horiz-adv-x="724" d="M143 252q0 29 23 45l311 281l-311 280q-23 16 -23 45q0 25 18.5 44.5t45.5 19.5q18 0 41 -19l317 -272q57 -51 57.5 -98.5t-57.5 -98.5l-317 -272q-23 -18 -41 -19q-27 0 -45.5 19.5t-18.5 44.5z" />
<glyph unicode="&#x20ac;" horiz-adv-x="1286" d="M20 682q0 25 16.5 43t45.5 18h102v144h-102q-29 0 -45.5 18.5t-16.5 43t16.5 43t45.5 18.5h102v80q0 217 156 372.5t373 155.5q123 0 253 -52.5t199 -142.5q14 -20 15 -39q0 -27 -19.5 -45t-44.5 -18q-14 0 -24.5 6t-23.5 20.5t-17 18.5q-135 129 -338 129 q-168 0 -287 -119t-119 -286v-80h502q29 0 45 -18.5t16 -43t-16 -43t-45 -18.5h-502v-144h350q29 0 45.5 -18t16.5 -43t-16.5 -43t-45.5 -18h-350v-113q0 -168 119 -287t287 -119q96 0 197.5 40t160.5 110q16 23 45 22q27 0 47.5 -18t20.5 -43q0 -23 -49 -72 q-172 -162 -422 -161q-217 0 -373 155.5t-156 372.5v113h-102q-29 0 -45.5 18t-16.5 43z" />
<glyph unicode="&#x2122;" horiz-adv-x="1753" d="M41 1536q0 25 16.5 43t44.5 18h590q29 0 45.5 -18t16.5 -43t-16.5 -43t-45.5 -18h-233v-824q0 -29 -18.5 -45t-43 -16t-43 16.5t-18.5 44.5v824h-234q-29 0 -45 18t-16 43zM770 653v883q0 33 17.5 52.5t39.5 19.5q39 0 62 -47l311 -748l311 748q23 47 62 47 q23 0 40 -19.5t17 -52.5v-883q0 -29 -18.5 -45t-43 -16t-43 16.5t-18.5 44.5v576l-250 -598q-20 -47 -57 -47t-57 47l-250 598v-576q0 -29 -18.5 -45t-43 -16t-43 16t-18.5 45z" />
<glyph unicode="&#xe000;" horiz-adv-x="1135" d="M0 1135h1135v-1135h-1135v1135z" />
<glyph unicode="&#xfb01;" horiz-adv-x="1212" d="M41 1075.5q0 24.5 16.5 43t44.5 18.5h187v192q0 123 88 206t223 83q102 0 182 -49q33 -23 33 -53q0 -25 -18.5 -45.5t-42.5 -20.5q-12 0 -59.5 22.5t-94.5 22.5q-86 0 -137 -48t-51 -118v-192h596q27 0 44 -17.5t17 -44.5v-1014q0 -29 -18.5 -45t-43 -16t-43 16.5 t-18.5 44.5v953h-534v-953q0 -29 -18.5 -45t-43 -16t-43 16.5t-18.5 44.5v953h-187q-29 0 -45 18.5t-16 43zM946 1372v164q0 29 18.5 45t43 16t43 -16t18.5 -45v-164q0 -29 -18.5 -45t-43 -16t-43 16t-18.5 45z" />
<glyph unicode="&#xfb02;" horiz-adv-x="1273" d="M41 1075.5q0 24.5 16.5 43t44.5 18.5h187v192q0 123 88 206t223 83q102 0 182 -49q33 -23 33 -53q0 -25 -18.5 -45.5t-42.5 -20.5q-12 0 -59.5 22.5t-94.5 22.5q-86 0 -137 -48t-51 -118v-192h307q29 0 45 -18.5t16 -43t-16 -43t-45 -18.5h-307v-953q0 -29 -18.5 -45 t-43 -16t-43 16.5t-18.5 44.5v953h-187q-29 0 -45 18.5t-16 43zM967 322v1214q0 29 18.5 45t43 16t43 -16t18.5 -45v-1214q0 -70 24.5 -134.5t79.5 -89.5q39 -18 39 -57q0 -25 -17.5 -43t-41.5 -18q-16 0 -25 4q-12 4 -33 18q-149 95 -149 320z" />
<glyph unicode="&#xfb03;" horiz-adv-x="2039" d="M41 1075.5q0 24.5 16.5 43t44.5 18.5h187v192q0 123 88 206t223 83q102 0 182 -49q33 -23 33 -53q0 -25 -18.5 -45.5t-42.5 -20.5q-12 0 -59.5 22.5t-94.5 22.5q-86 0 -137 -48t-51 -118v-192h307q29 0 45 -18.5t16 -43t-16 -43t-45 -18.5h-307v-953q0 -29 -18.5 -45 t-43 -16t-43 16.5t-18.5 44.5v953h-187q-29 0 -45 18.5t-16 43zM856 1075.5q0 24.5 16.5 43t45.5 18.5h186v192q0 123 88 206t223 83q102 0 182 -49q33 -23 33 -53q0 -25 -18.5 -45.5t-42.5 -20.5q-12 0 -59.5 22.5t-94.5 22.5q-86 0 -137 -48t-51 -118v-192h307 q29 0 45 -18.5t16 -43t-16 -43t-45 -18.5h-307v-953q0 -29 -18.5 -45t-43 -16t-43 16.5t-18.5 44.5v953h-186q-29 0 -45.5 18.5t-16.5 43zM1774 61v1014q0 29 18 45.5t43 16.5t43 -16.5t18 -45.5v-1014q0 -29 -18 -45t-43 -16t-43 16t-18 45zM1774 1372v164q0 29 18 45 t43 16t43 -16t18 -45v-164q0 -29 -18 -45t-43 -16t-43 16t-18 45z" />
<glyph unicode="&#xfb04;" horiz-adv-x="2080" d="M41 1075.5q0 24.5 16.5 43t44.5 18.5h187v192q0 123 88 206t223 83q102 0 182 -49q33 -23 33 -53q0 -25 -18.5 -45.5t-42.5 -20.5q-12 0 -59.5 22.5t-94.5 22.5q-86 0 -137 -48t-51 -118v-192h307q29 0 45 -18.5t16 -43t-16 -43t-45 -18.5h-307v-953q0 -29 -18.5 -45 t-43 -16t-43 16.5t-18.5 44.5v953h-187q-29 0 -45 18.5t-16 43zM856 1075.5q0 24.5 16.5 43t45.5 18.5h186v192q0 123 88 206t223 83q102 0 182 -49q33 -23 33 -53q0 -25 -18.5 -45.5t-42.5 -20.5q-12 0 -59.5 22.5t-94.5 22.5q-86 0 -137 -48t-51 -118v-192h307 q29 0 45 -18.5t16 -43t-16 -43t-45 -18.5h-307v-953q0 -29 -18.5 -45t-43 -16t-43 16.5t-18.5 44.5v953h-186q-29 0 -45.5 18.5t-16.5 43zM1774 322v1214q0 29 18 45t43 16t43 -16t18 -45v-1214q0 -70 25 -134.5t80 -89.5q39 -18 39 -57q0 -25 -17.5 -43t-42.5 -18 q-16 0 -24 4q-12 4 -33 18q-149 95 -149 320z" />
</font>
</defs>
</svg>
